/* XPM */
static const char *about_xpm[] = {
"16 16 35 1",
" 	c None",
".	c #3E444B",
"+	c #FFFFFF",
"@	c #E1E3E6",
"#	c #DADCDF",
"$	c #949494",
"%	c #8D8D8D",
"&	c #C5C6C8",
"*	c #B7B8B9",
"=	c #E3E5E8",
"-	c #C6C8CA",
";	c #CECFD1",
">	c #D5D6D9",
",	c #E6E8EB",
"'	c #C9CACC",
")	c #ACACAD",
"!	c #E9EAEC",
"~	c #DADBDC",
"{	c #71706F",
"]	c #ADADAE",
"^	c #EBECEE",
"/	c #AEAEAF",
"(	c #EFF0F2",
"_	c #EEEFF1",
":	c #B0B0B0",
"<	c #EDEEF0",
"[	c #F1F2F4",
"}	c #B1B1B2",
"|	c #E1E2E3",
"1	c #A1A1A1",
"2	c #FCFCFD",
"3	c #D8D8D9",
"4	c #F4F4F5",
"5	c #D9D9D9",
"6	c #EBEAEB",
"................",
".++++++++++++++.",
".@@@@@#$%&@@@@@.",
".@@@@@&..%@@@@@.",
".@@@@@#$%*@@@@@.",
".=====-;->=====.",
".,,,,'...),,,,,.",
".!!!!!~{.]!!!!!.",
".^^^^^^{./^^^^^.",
".(((((_{.:<<<<<.",
".[[[[[[{.}[[[[[.",
".[[[[[|{.1}}[[[.",
".22223.....}444.",
".22222555562222.",
".22222222222222.",
"................"};
