/* XPM */
static const char *amblight_xpm[] = {
"16 16 195 2",
"  	c None",
". 	c #597085",
"+ 	c #647D96",
"@ 	c #57728A",
"# 	c #556E82",
"$ 	c #555E68",
"% 	c #6C809F",
"& 	c #F6F9FB",
"* 	c #E8EFF4",
"= 	c #C5D2DE",
"- 	c #8C9FAE",
"; 	c #738DAD",
"> 	c #525E6C",
", 	c #667F99",
"' 	c #E4ECF4",
") 	c #E6EDF4",
"! 	c #EBF1F5",
"~ 	c #E1E9EE",
"{ 	c #B5D3E4",
"] 	c #505C68",
"^ 	c #607388",
"/ 	c #7588A6",
"( 	c #60758C",
"_ 	c #E1EBF3",
": 	c #DDE7F0",
"< 	c #D9E4ED",
"[ 	c #D5E1EA",
"} 	c #D1D9DE",
"| 	c #CBD8E0",
"1 	c #44647F",
"2 	c #7387A4",
"3 	c #FAFCFE",
"4 	c #B1BCCA",
"5 	c #64778C",
"6 	c #575C66",
"7 	c #CDDCE8",
"8 	c #C2CED7",
"9 	c #B4BEC5",
"0 	c #9BA3AA",
"a 	c #A5ABAF",
"b 	c #DEE8ED",
"c 	c #4E708A",
"d 	c #7D92AE",
"e 	c #E9F2FC",
"f 	c #F8FBFE",
"g 	c #E4EAF2",
"h 	c #ADB8C4",
"i 	c #8E99A7",
"j 	c #6C7685",
"k 	c #485363",
"l 	c #3B4552",
"m 	c #525960",
"n 	c #676F75",
"o 	c #7E858A",
"p 	c #ABB1B5",
"q 	c #E3EBF0",
"r 	c #9FBBCA",
"s 	c #52728F",
"t 	c #8396B1",
"u 	c #E2EDFA",
"v 	c #BED6F5",
"w 	c #DDEAFA",
"x 	c #E8F1FB",
"y 	c #F1F6FC",
"z 	c #F9FBFE",
"A 	c #F2F6FB",
"B 	c #E3ECF4",
"C 	c #CEDDEA",
"D 	c #B7CCDC",
"E 	c #98B6CB",
"F 	c #5D89A8",
"G 	c #729AB1",
"H 	c #50728D",
"I 	c #8398B3",
"J 	c #E0EBFA",
"K 	c #B6D2F4",
"L 	c #B3CFEE",
"M 	c #C3DADA",
"N 	c #CFE0C7",
"O 	c #ADCBE9",
"P 	c #9DBDE0",
"Q 	c #89AFD2",
"R 	c #79A3C5",
"S 	c #6A96B9",
"T 	c #5A8AAC",
"U 	c #4F82A2",
"V 	c #6C95AF",
"W 	c #7888A2",
"X 	c #DBE5F0",
"Y 	c #B7D2F2",
"Z 	c #EFF4CF",
"` 	c #FCFDF6",
" .	c #BCD4D4",
"..	c #9ABDDD",
"+.	c #8AB0D3",
"@.	c #7AA3C6",
"#.	c #6A97B9",
"$.	c #4F81A2",
"%.	c #648AA0",
"&.	c #344B60",
"*.	c #75879D",
"=.	c #C2C8C4",
"-.	c #B0CAE7",
";.	c #FFFFFF",
">.	c #CADDC2",
",.	c #9CBDDF",
"'.	c #7AA4C6",
").	c #324C5F",
"!.	c #121D25",
"~.	c #3B4546",
"{.	c #2E4459",
"].	c #8094B0",
"^.	c #C5CABD",
"/.	c #697066",
"(.	c #7B887F",
"_.	c #B5BA9D",
":.	c #DDDED8",
"<.	c #E0E5C2",
"[.	c #BBD2D2",
"}.	c #61778A",
"|.	c #263039",
"1.	c #3D5263",
"2.	c #334857",
"3.	c #172228",
"4.	c #0C1111",
"5.	c #485752",
"6.	c #496E87",
"7.	c #7F94B0",
"8.	c #D2D8C8",
"9.	c #A9B598",
"0.	c #8B9479",
"a.	c #7A7D5B",
"b.	c #626346",
"c.	c #3F4437",
"d.	c #202423",
"e.	c #141717",
"f.	c #151918",
"g.	c #1E2320",
"h.	c #2D362F",
"i.	c #415348",
"j.	c #506A5F",
"k.	c #5B776D",
"l.	c #466C88",
"m.	c #6A809B",
"n.	c #C9D2C7",
"o.	c #BDC7AF",
"p.	c #AAB697",
"q.	c #B6BC93",
"r.	c #C4C58F",
"s.	c #B9BE93",
"t.	c #A4B193",
"u.	c #96A68B",
"v.	c #889B82",
"w.	c #7B907A",
"x.	c #6D8472",
"y.	c #5F7969",
"z.	c #5D786C",
"A.	c #517070",
"B.	c #416682",
"C.	c #59606E",
"D.	c #606F79",
"E.	c #C4CDC1",
"F.	c #C4CCB6",
"G.	c #BCC4A7",
"H.	c #CACB99",
"I.	c #B5BE9E",
"J.	c #A7B497",
"K.	c #99A98F",
"L.	c #8FA089",
"M.	c #849883",
"N.	c #798F7D",
"O.	c #718779",
"P.	c #5E7B76",
"Q.	c #668FAD",
"R.	c #505E6A",
"S.	c #555E66",
"T.	c #72859D",
"U.	c #667177",
"V.	c #8F9A93",
"W.	c #B7BA9C",
"X.	c #B4BFAC",
"Y.	c #B8C3AD",
"Z.	c #AAB8A3",
"`.	c #95A595",
" +	c #7A8D81",
".+	c #5B6E6D",
"++	c #384C55",
"@+	c #4E6E87",
"#+	c #555C66",
"$+	c #5C6878",
"%+	c #667A8F",
"&+	c #6A7D9B",
"*+	c #687F99",
"=+	c #5E758A",
"-+	c #576677",
"                . + @ # $       ",
"                % & * = - ; >   ",
"                , ' ) * ! ~ { ] ",
"^ / (           , _ : < [ } | 1 ",
"2 3 4 5 6       , 7 8 9 0 a b c ",
"d e f g h i j k l m n o p q r s ",
"t u v w x y z z A B C D E F G H ",
"I J K L M N M O P Q R S T U V c ",
"W X Y M Z ` Z  ...+.@.#.T $.%.&.",
"*.=.-.N ` ;.` >.,.+.'.S ).!.~.{.",
"].^./.(._.:.<.[.}.|.1.2.3.4.5.6.",
"7.8.9.0.a.b.c.d.e.f.g.h.i.j.k.l.",
"m.n.o.p.q.r.s.t.u.v.w.x.y.z.A.B.",
"C.D.E.F.G.H.I.J.K.L.M.N.O.P.Q.R.",
"  S.T.U.V.W.X.Y.Z.`. +.+++@+$   ",
"      U.#+$+%+&+*+=+-+#+U.      "};
