/* XPM */
static const char *camera_xpm[] = {
"16 16 114 2",
"  	c None",
". 	c #141414",
"+ 	c #060606",
"@ 	c #252525",
"# 	c #020202",
"$ 	c #FCFCFC",
"% 	c #FDFDFD",
"& 	c #202020",
"* 	c #1F1F1F",
"= 	c #1E1E1E",
"- 	c #181818",
"; 	c #242424",
"> 	c #CECECE",
", 	c #FEFEFE",
"' 	c #D0D0D0",
") 	c #171717",
"! 	c #151515",
"~ 	c #656565",
"{ 	c #7D7D7D",
"] 	c #D1D0D0",
"^ 	c #CBCBCB",
"/ 	c #C9C9C9",
"( 	c #C6C6C6",
"_ 	c #C4C4C4",
": 	c #C1C1C1",
"< 	c #7D8898",
"[ 	c #6F7070",
"} 	c #BCBCBC",
"| 	c #0F0F0F",
"1 	c #363636",
"2 	c #949494",
"3 	c #8A8A8A",
"4 	c #848484",
"5 	c #818181",
"6 	c #828282",
"7 	c #1C2129",
"8 	c #010101",
"9 	c #999999",
"0 	c #959595",
"a 	c #BDBDBD",
"b 	c #E8E8E8",
"c 	c #FAFAFA",
"d 	c #DDDDDD",
"e 	c #9F9F9F",
"f 	c #797979",
"g 	c #858585",
"h 	c #666666",
"i 	c #323232",
"j 	c #292929",
"k 	c #898989",
"l 	c #E6E6E6",
"m 	c #C2C3C3",
"n 	c #B2B2B2",
"o 	c #BEBEBE",
"p 	c #4E4E4E",
"q 	c #444444",
"r 	c #0E0E0E",
"s 	c #2E2E2E",
"t 	c #2A2A2A",
"u 	c #D8D8D8",
"v 	c #A4A5A5",
"w 	c #4E5867",
"x 	c #2B323D",
"y 	c #484849",
"z 	c #AEADAD",
"A 	c #7A7A7A",
"B 	c #080808",
"C 	c #AEAEAE",
"D 	c #4E5A6C",
"E 	c #75849A",
"F 	c #33343E",
"G 	c #301917",
"H 	c #6C5E5C",
"I 	c #A3A3A3",
"J 	c #050505",
"K 	c #A8A8A8",
"L 	c #313A49",
"M 	c #343743",
"N 	c #402525",
"O 	c #55241E",
"P 	c #6D4641",
"Q 	c #CDCCCC",
"R 	c #030303",
"S 	c #434343",
"T 	c #808080",
"U 	c #4C4D4F",
"V 	c #301B1A",
"W 	c #54241D",
"X 	c #863F36",
"Y 	c #9C7C77",
"Z 	c #2F2F2F",
"` 	c #222222",
" .	c #373737",
"..	c #A9A9A9",
"+.	c #6A5E5C",
"@.	c #67423E",
"#.	c #977A76",
"$.	c #E2E2E2",
"%.	c #464646",
"&.	c #595959",
"*.	c #C5C5C5",
"=.	c #BABABA",
"-.	c #A6A6A6",
";.	c #777777",
">.	c #CCCCCC",
",.	c #BFBFBF",
"'.	c #5D5D5D",
").	c #8C8C8C",
"!.	c #0D0D0D",
"~.	c #131313",
"{.	c #121212",
"].	c #111111",
"^.	c #070707",
"/.	c #0C0C0C",
"                                ",
"  . + + .                       ",
"@ # $ % # & & & & * * * * = - ; ",
"- > > > > , , , , , , , % % ' ) ",
"! > ~ { > ] > ^ / ( _ : < [ } | ",
"! { ~ { ~ 1 1 2 3 4 5 6 7 8 9 | ",
"! { ~ { ~ 1 0 a b c d e f { g | ",
"! h 1 i ~ j k l m n o n p | q r ",
"! ~ s t ~ * u v w x y z A B q r ",
"! ~ s t ~ * C D E F G H I J q r ",
"! ~ s j ~ * K L M N O P Q R S r ",
"! ~ s j ~ & T U V W X Y n R q r ",
". { Z t ~ `  ...+.@.#.$.%.J &.r ",
"| e *.: ~ =.-.;...>.,.T '.).A !.",
"= | ~.~.~.{.].r ^.J J + /.r /.= ",
"                                "};
