/* XPM */
static const char *clearlog_xpm[] = {
"16 16 65 1",
" 	c None",
".	c #646362",
"+	c #333333",
"@	c #434343",
"#	c #61615F",
"$	c #959593",
"%	c #9D9D9B",
"&	c #C6C5C3",
"*	c #D7D6D3",
"=	c #71706F",
"-	c #AAA9A6",
";	c #B1B1AD",
">	c #A4A4A1",
",	c #B7B6B3",
"'	c #C6C5C2",
")	c #C5C4C1",
"!	c #C4C3C0",
"~	c #A9A9A5",
"{	c #494949",
"]	c #B9B9B6",
"^	c #B1B0AD",
"/	c #CAC9C6",
"(	c #C7C6C3",
"_	c #BFBEBC",
":	c #CDCCC9",
"<	c #ADADAA",
"[	c #B3B3B0",
"}	c #C8C7C4",
"|	c #B2B1AD",
"1	c #D6D5D2",
"2	c #B2B1AE",
"3	c #9A9A97",
"4	c #B1B0AC",
"5	c #B5B4B1",
"6	c #D8D7D5",
"7	c #9C9C9A",
"8	c #C1C0BD",
"9	c #B6B5B2",
"0	c #CCCBC8",
"a	c #8A8A88",
"b	c #494948",
"c	c #6B6B69",
"d	c #A0A09C",
"e	c #D5D4D1",
"f	c #C4C3C1",
"g	c #B8B7B4",
"h	c #B6B6B3",
"i	c #6A6A69",
"j	c #A9A8A5",
"k	c #989896",
"l	c #B7B7B3",
"m	c #AEADAA",
"n	c #C1C0BE",
"o	c #DCDBD8",
"p	c #9B9B97",
"q	c #B0B0AC",
"r	c #B7B7B4",
"s	c #C5C4C2",
"t	c #D3D2CF",
"u	c #C3C2C0",
"v	c #B3B2AE",
"w	c #CBCAC7",
"x	c #C0C0BD",
"y	c #A8A8A4",
"z	c #595957",
"                ",
"                ",
".+++++@@@####@+.",
"+#$$%%%%&&**&%%+",
".+#####$$$&&$#+.",
" =++++@@@====@# ",
" -@$;>,'')&!~{~ ",
" ]@$]%^/(_!:<{] ",
"  @$$[}[|*123{  ",
"  @$$4(256_57{  ",
"  {$$7<(1890ab  ",
"  c@$d|)efgh@i  ",
"  j@k[lmno(p@j  ",
"   .=q!rstu%.   ",
"   .=dvw*x5y.   ",
"    ....z...    "};
