/* XPM */
static const char * delete_xpm[] = {
"16 16 116 2",
"  	c None",
". 	c #446570",
"+ 	c #3D5B64",
"@ 	c #547E8B",
"# 	c #588391",
"$ 	c #557F8C",
"% 	c #527A87",
"& 	c #4D737F",
"* 	c #476A75",
"= 	c #B2C9D0",
"- 	c #ABC4CC",
"; 	c #719BA9",
"> 	c #6794A3",
", 	c #5D8B9A",
"' 	c #56808E",
") 	c #537C89",
"! 	c #517986",
"~ 	c #4F7683",
"{ 	c #4E7581",
"] 	c #4C717D",
"^ 	c #2E454C",
"/ 	c #283B41",
"( 	c #5E8C9B",
"_ 	c #B0C7CF",
": 	c #9DBBC4",
"< 	c #7CA3B0",
"[ 	c #6392A1",
"} 	c #5A8795",
"| 	c #496D79",
"1 	c #3D5B65",
"2 	c #314951",
"3 	c #273A40",
"4 	c #25373D",
"5 	c #26383E",
"6 	c #4F7682",
"7 	c #6694A3",
"8 	c #79A1AE",
"9 	c #759FAC",
"0 	c #5C8998",
"a 	c #3F5E68",
"b 	c #2D434A",
"c 	c #233439",
"d 	c #283C42",
"e 	c #223338",
"f 	c #293D43",
"g 	c #588492",
"h 	c #527B88",
"i 	c #496D78",
"j 	c #40606A",
"k 	c #4E3136",
"l 	c #A9181B",
"m 	c #A61C1E",
"n 	c #313F46",
"o 	c #912124",
"p 	c #AA191C",
"q 	c #602D32",
"r 	c #486C77",
"s 	c #507784",
"t 	c #4C727E",
"u 	c #4A6E7A",
"v 	c #303E44",
"w 	c #E90708",
"x 	c #FF0000",
"y 	c #AA1E21",
"z 	c #F30404",
"A 	c #393B41",
"B 	c #466873",
"C 	c #4B707C",
"D 	c #466974",
"E 	c #3E5C66",
"F 	c #2B4047",
"G 	c #8B292E",
"H 	c #9D2124",
"I 	c #2E444B",
"J 	c #43646E",
"K 	c #43646F",
"L 	c #3C5A63",
"M 	c #404850",
"N 	c #FD0101",
"O 	c #513E45",
"P 	c #42636D",
"Q 	c #41616B",
"R 	c #3A565F",
"S 	c #882D32",
"T 	c #972529",
"U 	c #405F69",
"V 	c #37525B",
"W 	c #2D3D44",
"X 	c #E70809",
"Y 	c #C2191C",
"Z 	c #F00505",
"` 	c #393E45",
" .	c #293D44",
"..	c #354F58",
"+.	c #38545D",
"@.	c #354F57",
"#.	c #4B3237",
"$.	c #AB1B1E",
"%.	c #A71E21",
"&.	c #30434A",
"*.	c #A7181B",
"=.	c #C00E10",
"-.	c #82171A",
";.	c #11191C",
">.	c #1A262A",
",.	c #203035",
"'.	c #283A41",
").	c #31474F",
"!.	c #1C292D",
"~.	c #050708",
"{.	c #0D1315",
"].	c #172226",
"^.	c #213136",
"/.	c #1E2C31",
"(.	c #131C1F",
"_.	c #06090A",
"            . +                 ",
"        @ # $ % & * +           ",
"= - ; > , ' ) ! ~ { ] * + ^ /   ",
"( _ - : < [ } @ ! | 1 2 3 4 5   ",
"6 , ( 7 8 8 9 0 a b 4 c 4 3 3   ",
"& 0 $ ! { { ! ] d e 3 f f / /   ",
"] g @ h ~ ] i j k l m n o p q   ",
"r $ s ~ t u i j v w x y x z A   ",
"B % { ] C r D E F G x x x H I   ",
"J & u i * . K L F M N x x O ^   ",
"j u * D . P Q R F S x x x T ^   ",
"L r . K Q U 1 V W X x Y x Z `   ",
" ...+.L E + + @.#.$.%.&.*.=.-.  ",
"    ;.>.,.'.I ).5 c !.;.        ",
"        ~.{.].^./.(._.          ",
"                                "};
