/* XPM */
static const char *delete_xpm[] = {
"16 16 41 1",
" 	c None",
".	c #026702",
"+	c #6FAD66",
"@	c #DBF3CE",
"#	c #D5EFC7",
"$	c #BBD9A4",
"%	c #98BD76",
"&	c #72A453",
"*	c #D4EFC9",
"=	c #D1EDC5",
"-	c #D2EEC6",
";	c #BCDCA9",
">	c #98BF7B",
",	c #7DAB5C",
"'	c #659D4B",
")	c #C9E6B6",
"!	c #CFECC4",
"~	c #D0EDC5",
"{	c #CBE9BD",
"]	c #B1D39A",
"^	c #93BA73",
"/	c #75A656",
"(	c #80AD62",
"_	c #E0EBDA",
":	c #6B9F4C",
"<	c #91BA75",
"[	c #116500",
"}	c #ACCCA9",
"|	c #699E4C",
"1	c #AED094",
"2	c #CCE7B6",
"3	c #000000",
"4	c #FFFFFF",
"5	c #FB1402",
"6	c #88B366",
"7	c #85B162",
"8	c #84B060",
"9	c #87B265",
"0	c #86B163",
"a	c #8BB569",
"b	c #F11E08",
"        ....    ",
"       +@#$%&   ",
"      +*=-;>,'  ",
"     .)!~{]^/(. ",
"     _______:<. ",
"   [[[[[[[}_|1. ",
"  [22233333_3333",
" [22223444333444",
"[=====3455434554",
"[666663345545543",
"[677778334555433",
"[699990334555433",
"[666663345545543",
"[6aaaa34b5434554",
"[666663454333454",
"[[[[[[3343333343"};
