/* XPM */
static const char * exportmat_xpm[] = {
"16 16 146 2",
"  	c None",
". 	c #F1F1F1",
"+ 	c #3C3931",
"@ 	c #8A8989",
"# 	c #CCCCCC",
"$ 	c #BBBBBB",
"% 	c #A8A8A8",
"& 	c #B3B3B3",
"* 	c #CACACA",
"= 	c #EFEFEF",
"- 	c #EBEBEB",
"; 	c #C6C6C6",
"> 	c #70664D",
", 	c #5D5639",
"' 	c #656259",
") 	c #CBCBCB",
"! 	c #999999",
"~ 	c #7D7D7D",
"{ 	c #838383",
"] 	c #919191",
"^ 	c #D9D9D9",
"/ 	c #2D281F",
"( 	c #918C78",
"_ 	c #777361",
": 	c #8C8770",
"< 	c #888166",
"[ 	c #E3D79D",
"} 	c #676041",
"| 	c #645D49",
"1 	c #BDBDBD",
"2 	c #6E6E6E",
"3 	c #6A6A6A",
"4 	c #777777",
"5 	c #B8B8B8",
"6 	c #544B3A",
"7 	c #FDF5D2",
"8 	c #FCF4D1",
"9 	c #FAF1CC",
"0 	c #F3EAC2",
"a 	c #E9DFB2",
"b 	c #DDD29E",
"c 	c #D3C78C",
"d 	c #383423",
"e 	c #615A42",
"f 	c #828282",
"g 	c #545454",
"h 	c #595959",
"i 	c #666666",
"j 	c #959595",
"k 	c #373126",
"l 	c #787463",
"m 	c #777362",
"n 	c #75715F",
"o 	c #726E5A",
"p 	c #4C4839",
"q 	c #DACE9A",
"r 	c #524D37",
"s 	c #746C4A",
"t 	c #93918B",
"u 	c #727272",
"v 	c #393939",
"w 	c #3B3B3B",
"x 	c #5F5F5F",
"y 	c #8A8A8A",
"z 	c #BEBEBE",
"A 	c #CFCFCF",
"B 	c #DDDDDD",
"C 	c #E0E0E0",
"D 	c #494434",
"E 	c #55503A",
"F 	c #71684F",
"G 	c #929292",
"H 	c #848484",
"I 	c #404040",
"J 	c #3C3C3C",
"K 	c #525252",
"L 	c #B4B4B4",
"M 	c #ECECEC",
"N 	c #CDCDCD",
"O 	c #DBDBDB",
"P 	c #56503F",
"Q 	c #9B937F",
"R 	c #9F9F9F",
"S 	c #9A9A9A",
"T 	c #989898",
"U 	c #474747",
"V 	c #444444",
"W 	c #505050",
"X 	c #AEAEAE",
"Y 	c #D1D1D1",
"Z 	c #C2C2C2",
"` 	c #ACACAC",
" .	c #A6A6A6",
"..	c #A0A0A0",
"+.	c #9D9D9D",
"@.	c #5E5E5E",
"#.	c #535353",
"$.	c #C4C4C4",
"%.	c #808080",
"&.	c #757575",
"*.	c #818181",
"=.	c #888888",
"-.	c #8E8E8E",
";.	c #979797",
">.	c #9B9B9B",
",.	c #717171",
"'.	c #5A5A5A",
").	c #656565",
"!.	c #8B8B8B",
"~.	c #707070",
"{.	c #636363",
"].	c #5B5B5B",
"^.	c #585858",
"/.	c #A1A1A1",
"(.	c #C5C5C5",
"_.	c #ADADAD",
":.	c #696969",
"<.	c #606060",
"[.	c #565656",
"}.	c #9C9C9C",
"|.	c #EAEAEA",
"1.	c #949494",
"2.	c #4F4F4F",
"3.	c #4D4D4D",
"4.	c #4B4B4B",
"5.	c #868686",
"6.	c #D2D2D2",
"7.	c #3F3F3F",
"8.	c #363636",
"9.	c #4E4E4E",
"0.	c #7B7B7B",
"a.	c #000000",
"b.	c #222222",
"c.	c #141414",
"d.	c #0F0F0F",
"e.	c #0E0E0E",
"f.	c #414141",
"g.	c #1F1F1F",
"h.	c #1B1B1B",
"i.	c #161616",
"j.	c #171717",
"k.	c #101010",
"l.	c #C5C5C2",
"m.	c #9E9E9A",
"n.	c #67665E",
"o.	c #B1B1B1",
"        . + @ # $ % & * =       ",
"      - ; > , ' ) ! ~ { ] ^     ",
"/ ( ( _ : < [ } | 1 2 3 3 4 5   ",
"6 7 8 9 0 a b c d e f g h i j   ",
"k l m n o p q r s t u v w x y z ",
"  = A B C D E F G ] H I J K { L ",
"  M N O B P Q R S T j U V W 4 X ",
"  Y & ; Z $ & `  ...+.@.W #.@.` ",
"  $.%.&.*.=.-.] ;.>...,.'.).4 N ",
"    !.~.3 i {.@.].^.g { ../.(.  ",
"    _.:.{.<.].[.g K W j }.}.|.  ",
"      1.2.#.2.3.4.U K -.5.6.    ",
"          7.v w v 8.9.0.        ",
"          a.b.c.d.e.f.a.a.      ",
"            g.h.i.j.k.j.        ",
"      ) l.l.m.n.3.W 3 o.z       "};
