/* XPM */
static const char *export_xpm[] = {
"16 16 20 1",
" 	c None",
".	c #3E444B",
"+	c #6E7985",
"@	c #A9C1D8",
"#	c #FFFFFF",
"$	c #E1E3E6",
"%	c #F6F6F7",
"&	c #00468C",
"*	c #E3E5E8",
"=	c #E6E8EB",
"-	c #A0D1FF",
";	c #E9EAEC",
">	c #75BAFF",
",	c #2691FB",
"'	c #EBECEE",
")	c #EFF0F2",
"!	c #EDEEF0",
"~	c #F1F2F4",
"{	c #FCFCFD",
"]	c #F4F4F5",
"........+@      ",
".#######++@     ",
".$$$$$$$+%+@    ",
".$$$$$$$+%%+@   ",
".$$$$$$$+++&+   ",
".**********&&   ",
".===&&&&&&&&-&  ",
".;;;&>>>>>>>,>& ",
".'''&,,,,,,,,,,&",
".)!!&&&&&&&&,,& ",
".~~~~~~~~~~&,&  ",
".~~~~~~~~~~&&   ",
".{]]]]]]]]]].   ",
".{{{{{{{{{{{.   ",
".{{{{{{{{{{{.   ",
".............   "};
