/* XPM */
static char * export_xpm[] = {
"16 16 119 2",
"  	c None",
". 	c #252118",
"+ 	c #233032",
"@ 	c #446570",
"# 	c #3D5B64",
"$ 	c #686148",
"% 	c #A2986D",
"& 	c #3C4742",
"* 	c #527A87",
"= 	c #4D737F",
"- 	c #476A75",
"; 	c #2D281F",
"> 	c #918C78",
", 	c #777361",
"' 	c #8C8770",
") 	c #888166",
"! 	c #E3D79D",
"~ 	c #BAB07F",
"{ 	c #52523F",
"] 	c #4F7683",
"^ 	c #4E7581",
"/ 	c #4C717D",
"( 	c #2E454C",
"_ 	c #283B41",
": 	c #544B3A",
"< 	c #FDF5D2",
"[ 	c #FCF4D1",
"} 	c #FAF1CC",
"| 	c #F3EAC2",
"1 	c #E9DFB2",
"2 	c #DFD49E",
"3 	c #D6CA8F",
"4 	c #C8BD8A",
"5 	c #59553F",
"6 	c #496D79",
"7 	c #3D5B65",
"8 	c #314951",
"9 	c #273A40",
"0 	c #25373D",
"a 	c #26383E",
"b 	c #373126",
"c 	c #787463",
"d 	c #777362",
"e 	c #75715F",
"f 	c #726E5A",
"g 	c #4C4839",
"h 	c #DACE9A",
"i 	c #BBB081",
"j 	c #736B4A",
"k 	c #4C676B",
"l 	c #2D434A",
"m 	c #233439",
"n 	c #5C8998",
"o 	c #557F8C",
"p 	c #517986",
"q 	c #464232",
"r 	c #BBB182",
"s 	c #66644D",
"t 	c #283C42",
"u 	c #223338",
"v 	c #293D43",
"w 	c #588492",
"x 	c #547E8B",
"y 	c #527B88",
"z 	c #4A4837",
"A 	c #6F7A6C",
"B 	c #496D78",
"C 	c #40606A",
"D 	c #2C4148",
"E 	c #2B3F46",
"F 	c #2A3E45",
"G 	c #486C77",
"H 	c #507784",
"I 	c #4C727E",
"J 	c #4A6E7A",
"K 	c #2F464D",
"L 	c #466873",
"M 	c #4B707C",
"N 	c #466974",
"O 	c #3E5C66",
"P 	c #2B4047",
"Q 	c #365059",
"R 	c #37525B",
"S 	c #344E56",
"T 	c #2E444B",
"U 	c #43646E",
"V 	c #43646F",
"W 	c #3C5A63",
"X 	c #344D55",
"Y 	c #39555E",
"Z 	c #3A5760",
"` 	c #38535C",
" .	c #42636D",
"..	c #41616B",
"+.	c #3A565F",
"@.	c #37515A",
"#.	c #405F69",
"$.	c #314850",
"%.	c #354F57",
"&.	c #2D4249",
"*.	c #293D44",
"=.	c #354F58",
"-.	c #38545D",
";.	c #30474F",
">.	c #283B42",
",.	c #213237",
"'.	c #11191C",
").	c #1A262A",
"!.	c #203035",
"~.	c #283A41",
"{.	c #31474F",
"].	c #1C292D",
"^.	c #050708",
"/.	c #0D1315",
"(.	c #172226",
"_.	c #213136",
":.	c #1E2C31",
"<.	c #131C1F",
"[.	c #06090A",
"          . + @ #               ",
"          $ % & * = - #         ",
"; > > , ' ) ! ~ { ] ^ / - # ( _ ",
": < [ } | 1 2 3 4 5 6 7 8 9 0 a ",
"b c d e f g h i j k l 0 m 0 9 9 ",
"  = n o p q r s / t u 9 v v _ _ ",
"  / w x y z A B C t v D D E F v ",
"  G o H ] I J B C E l 8 8 K l E ",
"  L * ^ / M G N O P 8 Q R S K T ",
"  U = J B - @ V W P X Y Z ` 8 ( ",
"  C J - N @  ...+.P X Y Z @.8 ( ",
"  W G @ V ..#.7 R F $.%.@.X K &.",
"  *.=.-.W O # # %.t l ;.T >.,.  ",
"      '.).!.~.T {.a m ].'.      ",
"          ^./.(._.:.<.[.        ",
"                                "};
