/* XPM */
static const char *exportmat_xpm[] = {
"16 16 58 1",
" 	c None",
".	c #323D56",
"+	c #18293A",
"@	c #192739",
"#	c #546379",
"$	c #E0E2E3",
"%	c #FBFCFC",
"&	c #53667E",
"*	c #4A6179",
"=	c #AEB3BD",
"-	c #49586C",
";	c #314054",
">	c #313F55",
",	c #7C8A9B",
"'	c #C1C6CE",
")	c #FEFEFE",
"!	c #586B87",
"~	c #4E5E7D",
"{	c #8693A3",
"]	c #F0F1F4",
"^	c #9097A3",
"/	c #C8CFD2",
"(	c #536176",
"_	c #F8FAFA",
":	c #AAB2BF",
"<	c #64748F",
"[	c #596D8A",
"}	c #4F6177",
"|	c #00468C",
"1	c #DADDE1",
"2	c #8C96A9",
"3	c #FBFBFB",
"4	c #DFE0E2",
"5	c #D2D7DA",
"6	c #A7AFBA",
"7	c #A0D1FF",
"8	c #556981",
"9	c #ECECEE",
"0	c #75BAFF",
"a	c #2691FB",
"b	c #E5E6E8",
"c	c #B3B9C3",
"d	c #ABB5BE",
"e	c #A0AAB4",
"f	c #404F65",
"g	c #E7E8EC",
"h	c #6C7F90",
"i	c #EAECF0",
"j	c #8A95A3",
"k	c #87909F",
"l	c #3E4F67",
"m	c #465A70",
"n	c #E4E7EA",
"o	c #42546B",
"p	c #425165",
"q	c #C6CBD1",
"r	c #DFE2E6",
"s	c #3F4E62",
"                ",
"    .++@.       ",
"  .#$%&*=-;     ",
" >,'))!~{]^/    ",
" (_:<[)){}%|    ",
".1%2{[3){[%||   ",
"+456||||||||7|  ",
"@&89|0000000a0| ",
"@*~b|aaaaaaaaaa|",
".cde||||||||aa| ",
" fgh55ii%%%|a|  ",
" ;jklmnioo%||   ",
"  >pqrs*=-;     ",
"    >@@@.       ",
"                ",
"                "};
