/* XPM */
static const char *hdrprop_xpm[] = {
"16 16 166 2",
"  	c None",
". 	c #DBDBDB",
"+ 	c #D8D8D7",
"@ 	c #D2D2D1",
"# 	c #CAC9C9",
"$ 	c #C2C1C1",
"% 	c #B8B7B7",
"& 	c #AFAEAE",
"* 	c #A6A5A4",
"= 	c #323334",
"- 	c #939291",
"; 	c #8B8A88",
"> 	c #838281",
", 	c #7D7B79",
"' 	c #707070",
") 	c #D2D2D2",
"! 	c #FEFEFE",
"~ 	c #F5F8FC",
"{ 	c #F2F6FB",
"] 	c #F1F4F9",
"^ 	c #EEF2F6",
"/ 	c #ECF2F4",
"( 	c #EAF0F5",
"_ 	c #E7EDF4",
": 	c #7D7F82",
"< 	c #DEE8F4",
"[ 	c #DCE6F3",
"} 	c #D9E4F2",
"| 	c #DFEAF8",
"1 	c #FBFBFB",
"2 	c #474747",
"3 	c #DAE3EF",
"4 	c #D8E3F2",
"5 	c #D6E2EC",
"6 	c #D6E0E5",
"7 	c #D1DDDF",
"8 	c #C8D6DC",
"9 	c #BACDDD",
"0 	c #9CBADF",
"a 	c #94B4DD",
"b 	c #8DAFDA",
"c 	c #8DAED8",
"d 	c #FCFCFC",
"e 	c #454545",
"f 	c #D1D1D1",
"g 	c #DDE6F0",
"h 	c #E4EEF7",
"i 	c #E6EEF1",
"j 	c #FCFDFD",
"k 	c #FBFDFD",
"l 	c #E0EAE1",
"m 	c #D3E1E7",
"n 	c #B1CEF1",
"o 	c #ABCAF0",
"p 	c #A6C6EF",
"q 	c #99B9E3",
"r 	c #444444",
"s 	c #FDFDFD",
"t 	c #E3ECF4",
"u 	c #E6EEEE",
"v 	c #F7F9F4",
"w 	c #F9FAF0",
"x 	c #E2EADA",
"y 	c #D4E1E1",
"z 	c #BCDBFF",
"A 	c #B0D0F8",
"B 	c #A2C2EC",
"C 	c #98B8E1",
"D 	c #F8F8F8",
"E 	c #414141",
"F 	c #D0D0D0",
"G 	c #DEE7F1",
"H 	c #E6EFF1",
"I 	c #E8EFE7",
"J 	c #EBF2E1",
"K 	c #E6F0E6",
"L 	c #D6E6EA",
"M 	c #6B7686",
"N 	c #889FBC",
"O 	c #AACBF8",
"P 	c #9EBFEB",
"Q 	c #F1F2F2",
"R 	c #3E3E3E",
"S 	c #CFCFCF",
"T 	c #FAFAFB",
"U 	c #DAE2ED",
"V 	c #DCE7F3",
"W 	c #DCE5EC",
"X 	c #DAE3E4",
"Y 	c #B3B9B7",
"Z 	c #828484",
"` 	c #9AA3AA",
" .	c #333333",
"..	c #2E3134",
"+.	c #465161",
"@.	c #596C85",
"#.	c #EAECEC",
"$.	c #3B3B3B",
"%.	c #F8F9F9",
"&.	c #C0C2C1",
"*.	c #B7B9B8",
"=.	c #ACAEAC",
"-.	c #A0A29F",
";.	c #8D8E8A",
">.	c #737572",
",.	c #676B67",
"'.	c #464843",
").	c #343731",
"!.	c #272B24",
"~.	c #202420",
"{.	c #E3E5E6",
"].	c #393939",
"^.	c #CECECE",
"/.	c #F6F7F7",
"(.	c #D5DAD5",
"_.	c #D3DBD3",
":.	c #CCD4CD",
"<.	c #DADCC4",
"[.	c #D5D7BC",
"}.	c #B2BFB4",
"|.	c #A7B6A9",
"1.	c #96A898",
"2.	c #8DA190",
"3.	c #859A88",
"4.	c #798D7B",
"5.	c #D8DBDD",
"6.	c #363738",
"7.	c #CDCECE",
"8.	c #F4F5F5",
"9.	c #D6DBD8",
"0.	c #D4DCD9",
"a.	c #CDD6D3",
"b.	c #DDDEC8",
"c.	c #D8DABF",
"d.	c #B3C1BB",
"e.	c #A9B9B2",
"f.	c #97AAA2",
"g.	c #8FA39A",
"h.	c #889E94",
"i.	c #7C9386",
"j.	c #CDD2D4",
"k.	c #343536",
"l.	c #CDCDCD",
"m.	c #F1F2F3",
"n.	c #DDE2DF",
"o.	c #DAE0DD",
"p.	c #D3DBD8",
"q.	c #D7DCD0",
"r.	c #D1D7C9",
"s.	c #BCC8C2",
"t.	c #9DAFA6",
"u.	c #96AAA0",
"v.	c #91A399",
"w.	c #C4CACD",
"x.	c #DFE0E1",
"y.	c #DFE0E0",
"z.	c #D8DBDB",
"A.	c #D2D3D4",
"B.	c #CACCCD",
"C.	c #C2C4C5",
"D.	c #BABCBD",
"E.	c #999C9E",
"F.	c #929597",
"G.	c #8D9192",
"H.	c #666768",
"I.	c #898D8E",
"  . + @ # $ % & * = - ; > , '   ",
") ! ~ { ] ^ / ( _ : < [ } | 1 2 ",
") ! 3 4 5 6 7 8 9 = 0 a b c d e ",
"f ! g h i j k l m : n o p q 1 r ",
"f s g t u v w x y = z A B C D E ",
"F d G h H I J K L : M N O P Q R ",
"S T U V W X Y Z ` =  ...+.@.#.$.",
"S %.&.*.=.-.;.>.,.: '.).!.~.{.].",
"^./.(._.:.<.[.}.|.= 1.2.3.4.5.6.",
"7.8.9.0.a.b.c.d.e.: f.g.h.i.j.k.",
"l.m.n.o.p.q.r.s.= = = t.u.v.w.= ",
"^.x.y.z.A.B.C.D.= D = E.F.G.: H.",
"= = = = = = = = = j.= = = = = = ",
"= w.w.w.w.w.w.w.= I.= w.w.w.w.= ",
"= = = = = = = = = : = = = = = = ",
"                = = =           "};
