/* XPM */
static const char *importmat_xpm[] = {
"16 16 57 1",
" 	c None",
".	c #323D56",
"+	c #18293A",
"@	c #192739",
"#	c #546379",
"$	c #E0E2E3",
"%	c #FBFCFC",
"&	c #53667E",
"*	c #4A6179",
"=	c #AEB3BD",
"-	c #49586C",
";	c #314054",
">	c #313F55",
",	c #7C8A9B",
"'	c #C1C6CE",
")	c #FEFEFE",
"!	c #586B87",
"~	c #4E5E7D",
"{	c #8693A3",
"]	c #F0F1F4",
"^	c #9097A3",
"/	c #536176",
"(	c #F8FAFA",
"_	c #00468C",
":	c #596D8A",
"<	c #C8CFD2",
"[	c #4F6177",
"}	c #838E9D",
"|	c #44566A",
"1	c #DADDE1",
"2	c #FBFBFB",
"3	c #EEEFF0",
"4	c #43576C",
"5	c #3E4F67",
"6	c #CDD0D6",
"7	c #A0D1FF",
"8	c #C3C8CD",
"9	c #BEC3C7",
"0	c #728193",
"a	c #57697A",
"b	c #D5D9DD",
"c	c #75BAFF",
"d	c #2691FB",
"e	c #465A70",
"f	c #EAECED",
"g	c #36475C",
"h	c #42546B",
"i	c #AFB4BE",
"j	c #404F65",
"k	c #E7E8EC",
"l	c #EAECF0",
"m	c #8A95A3",
"n	c #E4E7EA",
"o	c #425165",
"p	c #C6CBD1",
"q	c #DFE2E6",
"r	c #3F4E62",
"                ",
"       .++@.    ",
"     .#$%&*=-;  ",
"    >,'))!~{]^. ",
"    /(%_:))<[}| ",
"   .1%%__2)3456>",
"________7_890ab@",
"_cccccccdc_e]fg@",
"_dddddddddd_]]h@",
"________dd_3ii6>",
"    jk%_d_lh[}| ",
"    ;m%__nlhh^. ",
"     >opqr*=-;  ",
"       >@@@.    ",
"                ",
"                "};
