/* XPM */
static char * import_xpm[] = {
"16 16 125 2",
"  	c None",
". 	c #446570",
"+ 	c #3D5B64",
"@ 	c #547E8B",
"# 	c #588391",
"$ 	c #557F8C",
"% 	c #527A87",
"& 	c #4D737F",
"* 	c #476A75",
"= 	c #B2C9D0",
"- 	c #ABC4CC",
"; 	c #719BA9",
"> 	c #6794A3",
", 	c #5D8B9A",
"' 	c #56808E",
") 	c #537C89",
"! 	c #517986",
"~ 	c #4F7683",
"{ 	c #4E7581",
"] 	c #4C717D",
"^ 	c #2E454C",
"/ 	c #283B41",
"( 	c #5E8C9B",
"_ 	c #B0C7CF",
": 	c #9DBBC4",
"< 	c #7CA3B0",
"[ 	c #6392A1",
"} 	c #5A8795",
"| 	c #496D79",
"1 	c #3D5B65",
"2 	c #314951",
"3 	c #273A40",
"4 	c #25373D",
"5 	c #26383E",
"6 	c #4F7682",
"7 	c #6694A3",
"8 	c #79A1AE",
"9 	c #759FAC",
"0 	c #5C8998",
"a 	c #3F5E68",
"b 	c #2D434A",
"c 	c #233439",
"d 	c #283C42",
"e 	c #223338",
"f 	c #293D43",
"g 	c #588492",
"h 	c #527B88",
"i 	c #496D78",
"j 	c #40606A",
"k 	c #2C4148",
"l 	c #2B3F46",
"m 	c #2A3E45",
"n 	c #486C77",
"o 	c #507784",
"p 	c #4C727E",
"q 	c #4A6E7A",
"r 	c #2F464D",
"s 	c #466873",
"t 	c #4B707C",
"u 	c #466974",
"v 	c #3E5C66",
"w 	c #2B4047",
"x 	c #365059",
"y 	c #272821",
"z 	c #27393D",
"A 	c #2E444B",
"B 	c #43646E",
"C 	c #43646F",
"D 	c #3C5A63",
"E 	c #344D55",
"F 	c #39555E",
"G 	c #665F46",
"H 	c #A2986D",
"I 	c #2F342F",
"J 	c #42636D",
"K 	c #2F2E28",
"L 	c #918C78",
"M 	c #777361",
"N 	c #8C8770",
"O 	c #888166",
"P 	c #E3D79D",
"Q 	c #BAB07F",
"R 	c #4D4A36",
"S 	c #41616B",
"T 	c #405F69",
"U 	c #504F43",
"V 	c #FDF5D2",
"W 	c #FCF4D1",
"X 	c #FAF1CC",
"Y 	c #F3EAC2",
"Z 	c #E9DFB2",
"` 	c #DFD49E",
" .	c #D6CA8F",
"..	c #C8BD8A",
"+.	c #595137",
"@.	c #293D44",
"#.	c #354F58",
"$.	c #38545D",
"%.	c #38372E",
"&.	c #787463",
"*.	c #777362",
"=.	c #75715F",
"-.	c #726E5A",
";.	c #4C4839",
">.	c #DACE9A",
",.	c #BBB081",
"'.	c #736A48",
").	c #11191C",
"!.	c #1A262A",
"~.	c #203035",
"{.	c #283A41",
"].	c #31474F",
"^.	c #1C292D",
"/.	c #464030",
"(.	c #BBB182",
"_.	c #665C40",
":.	c #050708",
"<.	c #0D1315",
"[.	c #172226",
"}.	c #213136",
"|.	c #1E2C31",
"1.	c #131C1F",
"2.	c #06090A",
"3.	c #47402E",
"4.	c #6E6245",
"            . +                 ",
"        @ # $ % & * +           ",
"= - ; > , ' ) ! ~ { ] * + ^ /   ",
"( _ - : < [ } @ ! | 1 2 3 4 5   ",
"6 , ( 7 8 8 9 0 a b 4 c 4 3 3   ",
"& 0 $ ! { { ! ] d e 3 f f / /   ",
"] g @ h ~ ] i j d f k k l m f   ",
"n $ o ~ p q i j l b 2 2 r b l   ",
"s % { ] t n u v w 2 x y z r A   ",
"B & q i * . C D w E F G H I ^   ",
"j q * u . J K L L M N O P Q R   ",
"D n . C S T U V W X Y Z `  ...+.",
"@.#.$.D v + %.&.*.=.-.;.>.,.'.  ",
"    ).!.~.{.A ].5 c ^./.(._.    ",
"        :.<.[.}.|.1.2.3.4.      ",
"                                "};
