/* XPM */
static const char * lockwnd_xpm[] = {
"16 16 95 2",
"  	c None",
". 	c #FDF7F7",
"+ 	c #F1C4C4",
"@ 	c #E69898",
"# 	c #E07E7E",
"$ 	c #DD7575",
"% 	c #EAABAB",
"& 	c #D65757",
"* 	c #C00000",
"= 	c #B70000",
"- 	c #C71A1A",
"; 	c #C71717",
"> 	c #F0C0C0",
", 	c #D14444",
"' 	c #7E0000",
") 	c #190000",
"! 	c #170000",
"~ 	c #840000",
"{ 	c #820000",
"] 	c #DA6969",
"^ 	c #AF0000",
"/ 	c #2C0000",
"( 	c #000000",
"_ 	c #AC0000",
": 	c #700000",
"< 	c #E16565",
"[ 	c #C20000",
"} 	c #D32424",
"| 	c #8B0000",
"1 	c #DCBFBF",
"2 	c #C59393",
"3 	c #D1D6D6",
"4 	c #E0E0E0",
"5 	c #E1E3E3",
"6 	c #D9BABA",
"7 	c #AA6060",
"8 	c #C5C6C6",
"9 	c #B6BFBF",
"0 	c #A4AEAE",
"a 	c #A2A7A7",
"b 	c #ADACAC",
"c 	c #B1B1B1",
"d 	c #B1B2B2",
"e 	c #A7B1B1",
"f 	c #8E9A9A",
"g 	c #656E6E",
"h 	c #A6A6A6",
"i 	c #9D9D9D",
"j 	c #898989",
"k 	c #868686",
"l 	c #878787",
"m 	c #797979",
"n 	c #565656",
"o 	c #333333",
"p 	c #8F8F8F",
"q 	c #7D7D7D",
"r 	c #6A6A6A",
"s 	c #5F5F5F",
"t 	c #B4B4B4",
"u 	c #6F6F6F",
"v 	c #676767",
"w 	c #444444",
"x 	c #232323",
"y 	c #888888",
"z 	c #757575",
"A 	c #646464",
"B 	c #575757",
"C 	c #C9C9C9",
"D 	c #FFFFFF",
"E 	c #6E6E6E",
"F 	c #636363",
"G 	c #5C5C5C",
"H 	c #404040",
"I 	c #202020",
"J 	c #CACACA",
"K 	c #1F1F1F",
"L 	c #808080",
"M 	c #707070",
"N 	c #626262",
"O 	c #969696",
"P 	c #B3B3B3",
"Q 	c #616161",
"R 	c #3A3A3A",
"S 	c #1D1D1D",
"T 	c #5E5E5E",
"U 	c #4C4C4C",
"V 	c #434343",
"W 	c #3F3F3F",
"X 	c #3C3C3C",
"Y 	c #424242",
"Z 	c #373737",
"` 	c #141414",
" .	c #303030",
"..	c #181818",
"+.	c #070707",
"                                ",
"          . + @ # $             ",
"          % & * = - ;           ",
"        > , ' ) ! ~ = {         ",
"        ] ^ / (     _ :         ",
"        < [         } |         ",
"        1 2   3 4 5 6 7         ",
"      8 9 0 a b c d e f g       ",
"      h i j k l j l k m n o     ",
"      p q r s t 4 u v s w x     ",
"      y z A B C D E F G H I     ",
"      l z A B J D E F G H K     ",
"      L M N G O P v Q B R S     ",
"      T U V w W X V Y Z x `     ",
"       .K ..............` +.    ",
"        ( ( ( ( ( ( ( ( (       "};
