/* XPM */
static const char *lockwnd_xpm[] = {
"16 16 111 2",
"  	c None",
". 	c #1B1B1B",
"+ 	c #1F1F1F",
"@ 	c #1E1E1F",
"# 	c #3E3E3E",
"$ 	c #C3C3C3",
"% 	c #DBDCDC",
"& 	c #CFD1D2",
"* 	c #A4A5A8",
"= 	c #333333",
"- 	c #DFDFDF",
"; 	c #A2A2A2",
"> 	c #3F3F3F",
", 	c #3D3D3E",
"' 	c #838687",
") 	c #B4B7B9",
"! 	c #2F3032",
"~ 	c #1A1A1A",
"{ 	c #797B7E",
"] 	c #8A8F91",
"^ 	c #202020",
"/ 	c #E1E1E1",
"( 	c #434343",
"_ 	c #353537",
": 	c #A7ADB0",
"< 	c #1B1C1C",
"[ 	c #323232",
"} 	c #292A2B",
"| 	c #252627",
"1 	c #363737",
"2 	c #8B8B8B",
"3 	c #353636",
"4 	c #2C2C2C",
"5 	c #5E6365",
"6 	c #28292B",
"7 	c #2C2C2E",
"8 	c #D8D9D9",
"9 	c #D6D7D7",
"0 	c #D3D4D5",
"a 	c #CFD0D1",
"b 	c #CACCCD",
"c 	c #C5C8C9",
"d 	c #A5A9AA",
"e 	c #C4C7C8",
"f 	c #9EA2A4",
"g 	c #202121",
"h 	c #D7D8D8",
"i 	c #D4D5D5",
"j 	c #A4A7A9",
"k 	c #959A9C",
"l 	c #898D91",
"m 	c #7C8084",
"n 	c #6F7477",
"o 	c #54575A",
"p 	c #787C7F",
"q 	c #2B2B2D",
"r 	c #B5B8BA",
"s 	c #AEB3B5",
"t 	c #A8ABAF",
"u 	c #A0A7A9",
"v 	c #99A0A4",
"w 	c #7B8084",
"x 	c #A4A9AB",
"y 	c #92969B",
"z 	c #1F2020",
"A 	c #D2D4D5",
"B 	c #A4A8AA",
"C 	c #7B8083",
"D 	c #55575B",
"E 	c #7E8084",
"F 	c #646769",
"G 	c #2A2A2C",
"H 	c #D0D1D2",
"I 	c #D5D7D7",
"J 	c #ADB1B4",
"K 	c #A7AAAE",
"L 	c #9FA5A8",
"M 	c #979FA3",
"N 	c #797F83",
"O 	c #A3A8AA",
"P 	c #80878B",
"Q 	c #1E1F1F",
"R 	c #CBCECE",
"S 	c #D3D4D4",
"T 	c #A3A7A9",
"U 	c #95999B",
"V 	c #878B8F",
"W 	c #797F82",
"X 	c #6D7375",
"Y 	c #525659",
"Z 	c #7C7F83",
"` 	c #4C5154",
" .	c #29292B",
"..	c #C9CBCC",
"+.	c #BFC2C4",
"@.	c #B8BCBE",
"#.	c #B1B5B8",
"$.	c #A9AEB0",
"%.	c #9FA5A9",
"&.	c #7C8387",
"*.	c #A3A9AB",
"=.	c #737B7F",
"-.	c #1D1E1E",
";.	c #272828",
">.	c #272727",
",.	c #242525",
"'.	c #232424",
").	c #212324",
"!.	c #202123",
"~.	c #1D1F20",
"{.	c #1D1E1F",
"            . + @ .             ",
"          # $ % & * =           ",
"        # - ; > , ' ) !         ",
"      . $ ; ~     ~ { ] .       ",
"      ^ / (         _ : <       ",
"      [ / [         } : |       ",
"      [ / [         } : |       ",
"      1 2 3         4 5 6       ",
"    7 8 - 9 0 a b c d e f g     ",
"    7 h i j k l m n o m p g     ",
"    q 9 9 r s t u v w x y z     ",
"    q A i B k l C n D E F z     ",
"    G H I ) J K L M N O P Q     ",
"    G R S T U V W X Y Z ` Q     ",
"     ...8 +.@.#.$.%.&.*.=.-.    ",
"      ;.>.| ,.'.).!.z ~.{.      "};
