/* XPM */
static const char *matprop_xpm[] = {
"16 16 79 1",
" 	c None",
".	c #323D56",
"+	c #18293A",
"@	c #192739",
"#	c #546379",
"$	c #E0E2E3",
"%	c #FBFCFC",
"&	c #53667E",
"*	c #4A6179",
"=	c #AEB3BD",
"-	c #49586C",
";	c #314054",
">	c #313F55",
",	c #7C8A9B",
"'	c #C1C6CE",
")	c #FEFEFE",
"!	c #586B87",
"~	c #4E5E7D",
"{	c #8693A3",
"]	c #F0F1F4",
"^	c #9097A3",
"/	c #536176",
"(	c #F8FAFA",
"_	c #AAB2BF",
":	c #64748F",
"<	c #596D8A",
"[	c #C8CFD2",
"}	c #4F6177",
"|	c #838E9D",
"1	c #44566A",
"2	c #DADDE1",
"3	c #8C96A9",
"4	c #62768D",
"5	c #57728C",
"6	c #FBFBFB",
"7	c #EEEFF0",
"8	c #43576C",
"9	c #3E4F67",
"0	c #CDD0D6",
"a	c #DFE0E2",
"b	c #D2D7DA",
"c	c #A7AFBA",
"d	c #9FA9B7",
"e	c #A5AEB9",
"f	c #BABFC5",
"g	c #C3C8CD",
"h	c #BEC3C7",
"i	c #728193",
"j	c #57697A",
"k	c #D5D9DD",
"l	c #556981",
"m	c #ECECEE",
"n	c #556B81",
"o	c #485E77",
"p	c #465A70",
"q	c #EAECED",
"r	c #36475C",
"s	c #E5E6E8",
"t	c #FAFBFB",
"u	c #4F697E",
"v	c #B3B9C3",
"w	c #ABB5BE",
"x	c #A0AAB4",
"y	c #AAB1BC",
"z	c #AFB4BE",
"A	c #9CA4B1",
"B	c #404F65",
"C	c #E7E8EC",
"D	c #6C7F90",
"E	c #42546B",
"F	c #EAECF0",
"G	c #8A95A3",
"H	c #87909F",
"I	c #405165",
"J	c #E4E7EA",
"K	c #425165",
"L	c #C6CBD1",
"M	c #DFE2E6",
"N	c #3F4E62",
"                ",
"                ",
"     .++@.      ",
"   .#$%&*=-;    ",
"  >,'))!~{]^.   ",
"  /(_:<))[}|1   ",
" .2%3456)7890>  ",
" +abcdefghijk@  ",
" @&lm))nop]qr@  ",
" @*~st%uopqq0@  ",
" .vwxyzAAzs90>  ",
"  BCD8EFFzD8B   ",
"  ;GH9IJFz8k.   ",
"   >KLMNNN-;    ",
"     >@@@>      ",
"                "};
