/* XPM */
static const char *object_xpm[] = {
"16 16 56 1",
" 	c None",
".	c #026702",
"+	c #6FAD66",
"@	c #DBF3CE",
"#	c #D5EFC7",
"$	c #BBD9A4",
"%	c #98BD76",
"&	c #72A453",
"*	c #D4EFC9",
"=	c #D1EDC5",
"-	c #D2EEC6",
";	c #BCDCA9",
">	c #98BF7B",
",	c #7DAB5C",
"'	c #659D4B",
")	c #C9E6B6",
"!	c #CFECC4",
"~	c #D0EDC5",
"{	c #CBE9BD",
"]	c #B1D39A",
"^	c #93BA73",
"/	c #75A656",
"(	c #80AD62",
"_	c #E0EBDA",
":	c #6B9F4C",
"<	c #91BA75",
"[	c #116500",
"}	c #ACCCA9",
"|	c #699E4C",
"1	c #AED094",
"2	c #CCE7B6",
"3	c #8DB972",
"4	c #BEDCA6",
"5	c #428535",
"6	c #C6E1AC",
"7	c #97C588",
"8	c #60954E",
"9	c #387D28",
"0	c #8FC180",
"a	c #88B366",
"b	c #60954B",
"c	c #3D822C",
"d	c #85B162",
"e	c #84B060",
"f	c #64994D",
"g	c #458731",
"h	c #87B265",
"i	c #86B163",
"j	c #669B4E",
"k	c #54913F",
"l	c #87B264",
"m	c #679C4E",
"n	c #599442",
"o	c #8BB569",
"p	c #88B365",
"q	c #699E51",
"         ....   ",
"        +@#$%&  ",
"       +*=-;>,' ",
"      .)!~{]^/(.",
"      _______:<.",
"    [[[[[[[}_|1.",
"   [222222=[_34.",
"  [222222=5[_67 ",
" [=======89[_0. ",
" [aaaaaa=bc[_.  ",
" [adddde=fg[    ",
" [ahhhhi=jk[    ",
" [aaaaal=mn[    ",
" [aoooop=q[     ",
" [aaaaaa=[      ",
" [[[[[[[[       "};
