/* XPM */
static const char *open_xpm[] = {
"16 16 20 1",
" 	c None",
".	c #282D33",
"+	c #FCFCFD",
"@	c #CED3DA",
"#	c #F5F6F8",
"$	c #D4D8DE",
"%	c #DADDE3",
"&	c #393F48",
"*	c #696C71",
"=	c #E0E3E7",
"-	c #D4D7DD",
";	c #E6E8EC",
">	c #D4D8DD",
",	c #A8AFBA",
"'	c #ECEEF0",
")	c #A9B0BB",
"!	c #F2F3F5",
"~	c #AAB1BC",
"{	c #ABB2BD",
"]	c #7B7B7D",
"                ",
"                ",
" .....          ",
".+++++.....     ",
".@@@@@#####.    ",
".$$$$$$$$$$.    ",
".%%%%%%%%&&....*",
".====&&&&------.",
".;;;&>>>>,,,,,. ",
".''&))))))))).  ",
".!&~~~~~~~~~.   ",
".&{{{{{{{{{.    ",
"]..........     ",
"                ",
"                ",
"                "};
