/* XPM */
static char * open_xpm[] = {
"16 16 63 1",
" 	c None",
".	c #000000",
"+	c #181C1D",
"@	c #9BB3B7",
"#	c #A5BDC1",
"$	c #B2CCD0",
"%	c #738487",
"&	c #9CB8BD",
"*	c #A3C0C5",
"=	c #9BB6BA",
"-	c #A6C4C9",
";	c #73878B",
">	c #2A3536",
",	c #0E1112",
"'	c #090B0B",
")	c #98BBC1",
"!	c #698185",
"~	c #8BB2B9",
"{	c #6C8B90",
"]	c #607B80",
"^	c #7FABB2",
"/	c #7BA5AC",
"(	c #030404",
"_	c #58767B",
":	c #72A2AA",
"<	c #212F31",
"[	c #4F7075",
"}	c #669AA3",
"|	c #6599A2",
"1	c #39575C",
"2	c #466A70",
"3	c #5A8D96",
"4	c #5B8E97",
"5	c #487078",
"6	c #578790",
"7	c #3E6066",
"8	c #4A7279",
"9	c #54838B",
"0	c #517F87",
"a	c #020303",
"b	c #38575D",
"c	c #335054",
"d	c #0A0F10",
"e	c #4B767D",
"f	c #4C777E",
"g	c #192729",
"h	c #263B3F",
"i	c #203134",
"j	c #345055",
"k	c #446A70",
"l	c #42686D",
"m	c #3C5E64",
"n	c #070B0C",
"o	c #152123",
"p	c #253A3D",
"q	c #25393D",
"r	c #23373A",
"s	c #213437",
"t	c #213337",
"u	c #223437",
"v	c #233639",
"w	c #273C40",
"x	c #1D2C2F",
"                ",
"            ....",
"    ......+@#$%.",
"   &*******= -;.",
">,,,,,,,,,'. )!.",
"~~~~~~~~~~{. ~].",
"^^^^^^^^^^/(.^_.",
":::::::::::<.:[.",
"}||||||||||1.|2.",
"344444444445.67.",
"899999999990abc.",
"deffffffffffghi ",
".jkkkkkkkkkklmn ",
" .opqrstuvpwx.  ",
"   .........    ",
"                "};
