/* XPM */
static char * open_xpm[] = {
"16 16 109 2",
"  	c None",
". 	c #f4f4f4",
"X 	c Gray51",
"o 	c #959595",
"O 	c #888888",
"+ 	c Gray82",
"@ 	c #bebebe",
"# 	c Gray59",
"$ 	c #979999",
"% 	c #abbfc2",
"& 	c #c1d2d4",
"* 	c #c8dbde",
"= 	c #c3cbcc",
"- 	c #cacaca",
"; 	c #fbfbfb",
": 	c #d6e2e4",
"> 	c #c4d7da",
", 	c #c5d7da",
"< 	c #e7edee",
"1 	c #e3ecee",
"2 	c #bfc8ca",
"3 	c #d0d2d3",
"4 	c #5b5d5d",
"5 	c #595b5b",
"6 	c #898989",
"7 	c #dfeaec",
"8 	c #bac5c7",
"9 	c #8bb2b9",
"0 	c #7c979c",
"q 	c #606060",
"w 	c Gray99",
"e 	c #dbe7e9",
"r 	c #b6c2c5",
"t 	c #80acb3",
"y 	c #7fabb2",
"u 	c #7da6ad",
"i 	c #585858",
"p 	c Gray86",
"a 	c #d7e5e7",
"s 	c #b2c0c2",
"d 	c #89b1b8",
"f 	c #72a2aa",
"g 	c #5d6768",
"h 	c #b1b1b1",
"j 	c #d3e2e4",
"k 	c #aebdc0",
"l 	c #a0c0c6",
"z 	c #6599a2",
"x 	c #5d767a",
"c 	c #868686",
"v 	c #cfdfe2",
"b 	c #aabbbd",
"n 	c #bacfd3",
"m 	c #5b8e97",
"M 	c #597e84",
"N 	c Gray37",
"B 	c #c7d7da",
"V 	c #a6b6b9",
"C 	c Gray79",
"Z 	c #d4dee0",
"A 	c #54838b",
"S 	c #548088",
"D 	c #4e4f4f",
"F 	c #a1b0b2",
"G 	c #95a4a6",
"H 	c #cdcdcd",
"J 	c #e1e1e1",
"K 	c #567e84",
"L 	c #4c777e",
"P 	c #455052",
"I 	c #4e5f62",
"U 	c #707b7d",
"Y 	c Gray92",
"T 	c #dadada",
"R 	c #95a3a6",
"E 	c #466b71",
"W 	c #446a70",
"Q 	c #476b71",
"! 	c #668085",
"~ 	c #d8d8d8",
"^ 	c Gray91",
"/ 	c #b1b5b6",
"( 	c #889395",
") 	c #758284",
"_ 	c #697779",
"` 	c #626f71",
"' 	c #5f6d6f",
"] 	c #637072",
"[ 	c #687578",
"{ 	c #748183",
"} 	c #849093",
"| 	c #a8aeaf",
" .	c #ececec",
"..	c Gray95",
"X.	c #eaeaea",
"o.	c #e2e2e2",
"O.	c #cecece",
"+.	c #c5c5c5",
"@.	c #c0c0c0",
"#.	c #c1c1c1",
"$.	c #c6c6c6",
"%.	c Gray97",
"&.	c #fdfdfd",
"*.	c #f9f9f9",
"=.	c Gray96",
"-.	c #f3f3f3",
";.	c #f1f1f1",
":.	c #f8f8f8",
">.	c #fefefe",
"                                ",
"                      . X o O + ",
"        @ # # # # # $ % & * = - ",
"; . . : > > > > > > , <   1 2 - ",
"3 4 4 4 4 4 4 4 4 4 5 6   7 8 - ",
"9 9 9 9 9 9 9 9 9 9 0 q w e r - ",
"t y y y y y y y y y u i p a s - ",
"d f f f f f f f f f f g h j k - ",
"l z z z z z z z z z z x c v b - ",
"n m m m m m m m m m m M N B V C ",
"Z A A A A A A A A A A S D F G H ",
"J K L L L L L L L L L L P I U Y ",
"T R E W W W W W W W W W Q ! ~ ^ ",
"J + / ( ) _ ` ' ] [ { } | + J  .",
"..X.o.~ O.+.@.@ #.$.O.~ J X...%.",
"&.; *.%.=.-.;.;.;.-.. %.:.*.w >."};
