/* XPM */
static char * pause_xpm[] = {
"16 16 10 1",
" 	c None",
".	c #FFFFFF",
"+	c #969696",
"@	c #7B7B7B",
"#	c #0E0E0E",
"$	c #616161",
"%	c #373737",
"&	c #000000",
"*	c #3D3D3D",
"=	c #131313",
"                ",
"                ",
"   .      .     ",
"   +@#    +@#   ",
"   $%&    $%&   ",
"   *&&&   *&&&  ",
"   *&&&   *&&&  ",
"   *&&&   *&&&  ",
"   *&&&   *&&&  ",
"   *&&&   *&&&  ",
"   *&&&   *&&&  ",
"   =&&&   =&&&  ",
"   &&&&   &&&&  ",
"    &&     &&   ",
"                ",
"                "};
