/* XPM */
static const char *pause_xpm[] = {
"16 16 43 1",
" 	c None",
".	c #353535",
"+	c #343434",
"@	c #C8C8C8",
"#	c #C9C9C9",
"$	c #C4C4C4",
"%	c #323434",
"&	c #C7C7C7",
"*	c #BFC0C1",
"=	c #323232",
"-	c #C5C5C6",
";	c #BBBCBD",
">	c #313232",
",	c #B7B8B9",
"'	c #313131",
")	c #C1C1C2",
"!	c #B2B4B5",
"~	c #2D2F2F",
"{	c #BDBEBF",
"]	c #ADAFB1",
"^	c #BDBFBF",
"/	c #2D2D2D",
"(	c #B9BBBB",
"_	c #A8AAAC",
":	c #BABBBC",
"<	c #2B2C2C",
"[	c #B6B7B9",
"}	c #A4A6A8",
"|	c #2B2B2B",
"1	c #B3B4B6",
"2	c #9FA2A4",
"3	c #B3B5B6",
"4	c #292A2A",
"5	c #AEAFB1",
"6	c #9A9DA0",
"7	c #AFB0B2",
"8	c #282829",
"9	c #A6A9AA",
"0	c #969A9C",
"a	c #A7AAAB",
"b	c #262728",
"c	c #272728",
"d	c #272929",
"                ",
"   .++    .++   ",
"  .@#@.  .@#@.  ",
"  +@$$+  +@$$+  ",
"  %&**%  %&**%  ",
"  =-;;=  =-;;=  ",
"  >$,,>  >$,,>  ",
"  ')!!'  ')!!'  ",
"  ~{]]~  ~^]]~  ",
"  /(__/  /:__/  ",
"  <[}}<  <,}}<  ",
"  |122|  |322|  ",
"  45664  47664  ",
"  89008  8a008  ",
"   bcd    bcd   ",
"                "};
