/* XPM */
static const char *preferences_xpm[] = {
"16 16 33 1",
" 	c None",
".	c #3C3C3E",
"+	c #37393D",
"@	c #383A3E",
"#	c #3D3D3F",
"$	c #35373B",
"%	c #FDFDFD",
"&	c #FFFFFF",
"*	c #595B5E",
"=	c #C9CBD0",
"-	c #EAECEF",
";	c #E8EAEE",
">	c #E6E8ED",
",	c #E5E7EC",
"'	c #E2E5EA",
")	c #D9DDE4",
"!	c #36383C",
"~	c #34363A",
"{	c #FCFCFD",
"]	c #E8EBEE",
"^	c #4D5159",
"/	c #8F97A5",
"(	c #AAB3C2",
"_	c #363638",
":	c #2D2F32",
"<	c #292A2F",
"[	c #2A2C30",
"}	c #2A2D31",
"|	c #38393A",
"1	c #292C30",
"2	c #2B2D31",
"3	c #333335",
"4	c #323438",
" .+@@@@@@@@+#   ",
" $%&*=-;>,')!   ",
" ~{]^/((((((!   ",
" _$:<[}}}}}}:$| ",
"   $%&*=-;>,')$ ",
"   ~{]^/((((((~ ",
" .+@@@@@@@@+#12 ",
" $%&*=-;>,')!   ",
" ~{]^/((((((!   ",
" _$:<[}}}}}}:$| ",
"   $%&*=-;>,')$ ",
"   ~{]^/((((((~ ",
"   342<[1111112 ",
"   $%&*=-;>,')$ ",
"   ~{]^/((((((~ ",
"   342<[1111112 "};
