/* XPM */
static const char *preferences_xpm[] = {
"16 16 73 1",
" 	c None",
".	c #B2B1AE",
"+	c #9A9997",
"@	c #B0AFAC",
"#	c #979794",
"$	c #C2C1BE",
"%	c #F5F5F5",
"&	c #EFEFEF",
"*	c #AFAEAB",
"=	c #969594",
"-	c #DEDEDE",
";	c #959493",
">	c #949392",
",	c #D8D8D7",
"'	c #92918F",
")	c #D1D1D1",
"!	c #BBBBBA",
"~	c #D6D6D6",
"{	c #AAAAAA",
"]	c #CECECD",
"^	c #BFBEBB",
"/	c #8D8D8A",
"(	c #C2C2C1",
"_	c #C1C1C0",
":	c #CFCFCE",
"<	c #D4D4D2",
"[	c #A7A6A3",
"}	c #888886",
"|	c #9B9A99",
"1	c #C4C4C3",
"2	c #9F9F9F",
"3	c #6D6C6A",
"4	c #838280",
"5	c #BCBCBB",
"6	c #AFAFAE",
"7	c #B7B7B6",
"8	c #C2C2C2",
"9	c #767674",
"0	c #7E7E7D",
"a	c #B4B4B4",
"b	c #ABABAB",
"c	c #C3C3C6",
"d	c #7A7A78",
"e	c #9F9F9C",
"f	c #797977",
"g	c #8F8F8F",
"h	c #BFBFC3",
"i	c #ABABB2",
"j	c #7F7F7E",
"k	c #B8B7B4",
"l	c #747473",
"m	c #B6B6BC",
"n	c #ADADB3",
"o	c #C9C9D6",
"p	c #DBDBF0",
"q	c #6E6D6B",
"r	c #B6B6C0",
"s	c #A1A1AA",
"t	c #B3B3BC",
"u	c #8F8F94",
"v	c #BABAC4",
"w	c #6F6F6F",
"x	c #BBBBC8",
"y	c #6C6C6B",
"z	c #696967",
"A	c #B6B6C3",
"B	c #939391",
"C	c #666563",
"D	c #B4B3B0",
"E	c #C7C7DA",
"F	c #C3C3D5",
"G	c #A5A4A1",
"H	c #626160",
"                ",
"      .++.      ",
"   @#$#%&#$#@   ",
"  *=-;>,,>;-=*  ",
"  ')!~{~~{]!)'  ",
"  ^/(_:<<:_(/^  ",
" [}}|123321|}}[ ",
" 456789  987654 ",
" 0abacd  dcaba0 ",
" effghijjihgffe ",
"  klmnopponmlk  ",
"  qrstuvvutsrq  ",
"  #wxyzAAzyxw#  ",
"   BCDCEFCDCB   ",
"     G4HH4G     ",
"                "};
