/* XPM */
static char * refresh_xpm[] = {
"16 16 4 1",
" 	c None",
".	c Black",
"X	c Red",
"o	c Green",
"                ",
"                ",
"                ",
"                ",
"                ",
"      ..        ",
"     ....  XX   ",
"     .... XXXX  ",
"      ..  XXXX  ",
"           XX   ",
"    oo          ",
"   oooo         ",
"   oooo         ",
"    oo          ",
"                ",
"                "};
