/* XPM */
static const char *refresh_xpm[] = {
"16 16 19 1",
" 	c None",
".	c #6BC663",
"+	c #25AB1A",
"@	c #22AA17",
"#	c #56BE4E",
"$	c #2DAB23",
"%	c #2FAF25",
"&	c #2CAE22",
"*	c #3CB432",
"=	c #27AC1C",
"-	c #7CC575",
";	c #6BB964",
">	c #3DAB34",
",	c #44B73A",
"'	c #5CBF54",
")	c #2AAB20",
"!	c #78CB71",
"~	c #52B44B",
"{	c #2BAB21",
"                ",
"                ",
"     .+@@@#   $ ",
"    %@@&*@@=-;> ",
"   %@,    ')$$$ ",
"  !@,     $$$$$ ",
"         $~$${$ ",
"                ",
"                ",
"  ${$$~$        ",
"  $$$$$     ,@! ",
"  $$$)'    ,@%  ",
"  >;-=@@*&@@%   ",
"  $   #@@@+.    ",
"                ",
"                "};
