/* XPM */
static const char * rotateCamAroundCenter_xpm[] = {
"16 16 98 2",
"  	c None",
". 	c #DADADA",
"+ 	c #D4D4D4",
"@ 	c #A1A1A1",
"# 	c #D3D3D3",
"$ 	c #C5C5C5",
"% 	c #C4C4C5",
"& 	c #C7C7C7",
"* 	c #C9C9C9",
"= 	c #C4C4C4",
"- 	c #999999",
"; 	c #C2C2C2",
"> 	c #AFAFAF",
", 	c #909091",
"' 	c #6E6E72",
") 	c #525254",
"! 	c #C8C8C8",
"~ 	c #CBCBCA",
"{ 	c #34343B",
"] 	c #45454E",
"^ 	c #53535A",
"/ 	c #4F4F55",
"( 	c #6D6D6F",
"_ 	c #B6B6B6",
": 	c #57575F",
"< 	c #6C6C74",
"[ 	c #46464E",
"} 	c #A4A4A4",
"| 	c #C1C1C1",
"1 	c #262628",
"2 	c #87878D",
"3 	c #ACACB3",
"4 	c #5F5F66",
"5 	c #505056",
"6 	c #4A4A4F",
"7 	c #505057",
"8 	c #4F4F54",
"9 	c #93939A",
"0 	c #86868E",
"a 	c #B5B5B3",
"b 	c #3B3B3F",
"c 	c #CBCBCB",
"d 	c #BDBDBD",
"e 	c #2F2F36",
"f 	c #313137",
"g 	c #B7B7B6",
"h 	c #AFAFB7",
"i 	c #515156",
"j 	c #CFCFCF",
"k 	c #CCCCCC",
"l 	c #323237",
"m 	c #424248",
"n 	c #AAAAAB",
"o 	c #888890",
"p 	c #4E4E51",
"q 	c #CACACA",
"r 	c #C6C6C6",
"s 	c #B3B3B3",
"t 	c #65656B",
"u 	c #7D7D85",
"v 	c #5C5C5C",
"w 	c #C5C5C6",
"x 	c #646463",
"y 	c #8A8A90",
"z 	c #55555C",
"A 	c #848487",
"B 	c #57575E",
"C 	c #47474C",
"D 	c #4C4C4C",
"E 	c #C3C3C2",
"F 	c #BFBFBF",
"G 	c #4C4C4B",
"H 	c #68686E",
"I 	c #C0C0C6",
"J 	c #8A8A8D",
"K 	c #C8C8C7",
"L 	c #5E5E62",
"M 	c #505059",
"N 	c #5F5F65",
"O 	c #555559",
"P 	c #64646B",
"Q 	c #D3D3D9",
"R 	c #E2E2E7",
"S 	c #86868B",
"T 	c #C6C6C5",
"U 	c #9A9A9B",
"V 	c #3C3C44",
"W 	c #54545B",
"X 	c #787881",
"Y 	c #7D7D84",
"Z 	c #A3A3A6",
"` 	c #C3C3C3",
" .	c #C9C9C8",
"..	c #BCBCBC",
"+.	c #BABABA",
"@.	c #BBBBBB",
"#.	c #969696",
"$.	c #828282",
". + + + + + + + + + + + + + + @ ",
"# $ $ $ % $ & * = $ $ $ $ $ $ - ",
"# $ = ; > , ' ) ! $ $ $ $ $ $ - ",
"# $ ~ { ] ^ / ( $ $ = & $ $ $ - ",
"# $ = _ : < [ } $ = | 1 _ = $ - ",
"# $ & 2 3 4 5 ~ $ ! 6 7 8 * $ - ",
"# $ = 9 0 a b c $ = d e f | $ - ",
"# $ g h i j $ = $ $ k l m n $ - ",
"# $ d o p q $ $ $ $ r l 7 s $ - ",
"# $ q t u v r $ = w x y z c $ - ",
"# $ $ A B C D E F G H I J $ $ - ",
"# $ $ K L M N O P Q R S T = $ - ",
"# $ $ = K U V W X Y Z ` = $ $ - ",
"# $ $ $ $ $  ...+.$ $ = $ $ $ - ",
"# $ $ $ $ $ $ $ $ $ $ $ $ $ $ - ",
"@.#.#.#.#.#.#.#.#.#.#.#.#.#.#.$."};
