/* XPM */
static const char * rotateCam_xpm[] = {
"16 16 170 2",
"  	c None",
". 	c #4E89B1",
"+ 	c #1C6A97",
"@ 	c #3D6284",
"# 	c #7FABBB",
"$ 	c #33577B",
"% 	c #3B668A",
"& 	c #7EA8B1",
"* 	c #8CACBD",
"= 	c #265979",
"- 	c #365674",
"; 	c #8EB1BA",
"> 	c #909B93",
", 	c #1D718F",
"' 	c #001C45",
") 	c #5F92B1",
"! 	c #90A7BC",
"~ 	c #BBD6E6",
"{ 	c #003862",
"] 	c #244469",
"^ 	c #41688B",
"/ 	c #87A4A7",
"( 	c #B8CDE0",
"_ 	c #B8CEE4",
": 	c #85ABC5",
"< 	c #0B4C78",
"[ 	c #397CA7",
"} 	c #345A7F",
"| 	c #1E83A7",
"1 	c #B1C8E6",
"2 	c #88B1D3",
"3 	c #0C5988",
"4 	c #1E456C",
"5 	c #406888",
"6 	c #5A7EA2",
"7 	c #7A98B6",
"8 	c #C6D7E9",
"9 	c #8FB7CF",
"0 	c #347090",
"a 	c #0075A1",
"b 	c #3284AF",
"c 	c #08749F",
"d 	c #00709C",
"e 	c #8BA3C8",
"f 	c #A0B4D3",
"g 	c #1C5983",
"h 	c #4A769A",
"i 	c #4B728A",
"j 	c #6FA7B3",
"k 	c #586F8B",
"l 	c #81ADCD",
"m 	c #ADC5D2",
"n 	c #1C567C",
"o 	c #134873",
"p 	c #1B618D",
"q 	c #1C6592",
"r 	c #145D8B",
"s 	c #096290",
"t 	c #035583",
"u 	c #2C4A68",
"v 	c #7C95B3",
"w 	c #2B567D",
"x 	c #5695BB",
"y 	c #A4B6B2",
"z 	c #CADBF2",
"A 	c #426584",
"B 	c #18587A",
"C 	c #89ACBF",
"D 	c #4D8DAD",
"E 	c #5385A8",
"F 	c #2A4766",
"G 	c #7C96B3",
"H 	c #7F98B6",
"I 	c #005181",
"J 	c #186693",
"K 	c #6FA5B2",
"L 	c #90B7C9",
"M 	c #004A76",
"N 	c #014A78",
"O 	c #385D87",
"P 	c #32648D",
"Q 	c #5283A7",
"R 	c #43759B",
"S 	c #4E83A2",
"T 	c #A5BDDE",
"U 	c #004675",
"V 	c #1E4F79",
"W 	c #34536B",
"X 	c #0B4C79",
"Y 	c #1C7EA8",
"Z 	c #B9C7D7",
"` 	c #779FB6",
" .	c #3A7191",
"..	c #528AA0",
"+.	c #A0C2C5",
"@.	c #5184A7",
"#.	c #1D456E",
"$.	c #002E58",
"%.	c #5885AC",
"&.	c #AAC8E9",
"*.	c #09436E",
"=.	c #335F84",
"-.	c #2C4A6D",
";.	c #0D76A0",
">.	c #CFE1FB",
",.	c #BCCFE8",
"'.	c #94A8B5",
").	c #579CAC",
"!.	c #6890A5",
"~.	c #5995BC",
"{.	c #0E79A5",
"].	c #004E7F",
"^.	c #5583A4",
"/.	c #A8C5DD",
"(.	c #0F5988",
"_.	c #4C8BB2",
":.	c #375B78",
"<.	c #094571",
"[.	c #3681A2",
"}.	c #2E7394",
"|.	c #1A597C",
"1.	c #1B698F",
"2.	c #385A7B",
"3.	c #679DC0",
"4.	c #1D76A1",
"5.	c #0C6389",
"6.	c #B5CEE6",
"7.	c #C2D5EE",
"8.	c #104F7B",
"9.	c #4F8DB4",
"0.	c #335578",
"a.	c #33577C",
"b.	c #3F6688",
"c.	c #5387A3",
"d.	c #CCDEFA",
"e.	c #519AB0",
"f.	c #4F7991",
"g.	c #89B4BE",
"h.	c #8EB3C0",
"i.	c #C3D6ED",
"j.	c #8CBAD1",
"k.	c #1D4871",
"l.	c #487597",
"m.	c #548D9F",
"n.	c #86B6C8",
"o.	c #CBDBF6",
"p.	c #76A9BB",
"q.	c #80A7AC",
"r.	c #8DAFBB",
"s.	c #A5C8E7",
"t.	c #6BABD0",
"u.	c #023965",
"v.	c #35597E",
"w.	c #6E9595",
"x.	c #437385",
"y.	c #5C93AB",
"z.	c #A6C3D9",
"A.	c #CBDDF9",
"B.	c #B0CDE8",
"C.	c #65A7CD",
"D.	c #06406C",
"E.	c #233D61",
"F.	c #000000",
"G.	c #16222A",
"H.	c #1F3455",
"I.	c #124670",
"J.	c #05456F",
"K.	c #0D3258",
"L.	c #284468",
"M.	c #2F4C61",
"                  . + @         ",
"        # $ %     & * = -       ",
"      ; > , ' %   ) ! ~ { ] ^   ",
"      / ( _ : < [ } | 1 2 3 4 5 ",
"    6 7 8 9 0 a b c d e f g h   ",
"i j k l m n o p q r s t u v w x ",
"y z A B C D         E F G H I J ",
"K L M N O P         Q R S T U V ",
"W X Y Z `  ...+.  @.#.$.%.&.*.=.",
"  -.;.>.,.'.).!.  ~.{.].^./.(._.",
"  :.<.[.}.|.1.2.  3.4.5.6.7.8.9.",
"    0.a.b.c.d.e.f.g.  h.i.j.k.l.",
"          m.n.o.p.q.r.s.t.u.v.  ",
"          w.x.y.z.A.B.C.D.E.    ",
"      F.F.F.F.G.H.I.J.K.L.M.    ",
"          F.F.F.F.F.F.          "};
