/* XPM */
static const char *rotateCamAroundCenter_xpm[] = {
"16 16 51 1",
" 	c None",
".	c #000000",
"+	c #707172",
"@	c #5C6069",
"#	c #126500",
"$	c #347621",
"%	c #667261",
"&	c #74767B",
"*	c #656972",
"=	c #F4F4F5",
"-	c #D8E7CB",
";	c #D0E2C4",
">	c #2A7616",
",	c #577E49",
"'	c #717173",
")	c #5F646C",
"!	c #F8F9FA",
"~	c #E0E3E7",
"{	c #91BE6E",
"]	c #D7E7CB",
"^	c #317B1C",
"/	c #5F636C",
"(	c #F5F5F6",
"_	c #E5E7EB",
":	c #93BF70",
"<	c #D0E2C5",
"[	c #357722",
"}	c #393F47",
"|	c #E9EBEE",
"1	c #95C072",
"2	c #EDEFF1",
"3	c #63696F",
"4	c #61676D",
"5	c #D3D5D8",
"6	c #F1F3F4",
"7	c #CED0D3",
"8	c #747475",
"9	c #61666D",
"0	c #F6F7F8",
"a	c #F2F3F4",
"b	c #60656C",
"c	c #727374",
"d	c #686C74",
"e	c #D6D7DA",
"f	c #FAFAFB",
"g	c #D7D8DA",
"h	c #666A71",
"i	c #7B7D81",
"j	c #656A70",
"k	c #3A4149",
"l	c #B9B9B9",
"       .        ",
"      ...       ",
"       .        ",
"     +@.#$%     ",
"    &*=.-;>,    ",
"   ')!~.{{]^%   ",
"   /(__.:::<[   ",
"   }|||.1111# . ",
"   }2223........",
"   4566666674 . ",
"   89.0000abc   ",
"    .deffghi    ",
" . . 8jkkj8     ",
" .l             ",
" ...            ",
"                "};
