/* XPM */
static const char *rotateCam_xpm[] = {
"16 16 42 1",
" 	c None",
".	c #000000",
"+	c #707172",
"@	c #5C6069",
"#	c #126500",
"$	c #347621",
"%	c #667261",
"&	c #74767B",
"*	c #656972",
"=	c #F4F4F5",
"-	c #2A7616",
";	c #577E49",
">	c #717173",
",	c #5F646C",
"'	c #F8F9FA",
")	c #E0E3E7",
"!	c #317B1C",
"~	c #5F636C",
"{	c #F5F5F6",
"]	c #E5E7EB",
"^	c #357722",
"/	c #393F47",
"(	c #E9EBEE",
"_	c #EDEFF1",
":	c #61676D",
"<	c #D3D5D8",
"[	c #F1F3F4",
"}	c #CED0D3",
"|	c #747475",
"1	c #61666D",
"2	c #F6F7F8",
"3	c #F2F3F4",
"4	c #60656C",
"5	c #727374",
"6	c #686C74",
"7	c #D6D7DA",
"8	c #FAFAFB",
"9	c #D7D8DA",
"0	c #666A71",
"a	c #7B7D81",
"b	c #656A70",
"c	c #3A4149",
"       .        ",
"      ...       ",
"       .        ",
"     +@.#$%     ",
"    &*====-;    ",
"   >,')))))!%   ",
"   ~{]]]]]]]^   ",
"   /((((((((# . ",
"   /___(((((....",
"   :<[[[[[[}: . ",
"   |1.2222345   ",
"    .678890a    ",
" . . |bccb|     ",
" ..             ",
" ...            ",
"                "};
