/* XPM */
static const char *saveas_xpm[] = {
"16 16 32 1",
" 	c None",
".	c #DEDEDE",
"+	c #502F01",
"@	c #696C71",
"#	c #282D33",
"$	c #B86D3B",
"%	c #A4AAB5",
"&	c #393F48",
"*	c #EBEDEF",
"=	c #9D9D9D",
"-	c #677283",
";	c #DBDEE3",
">	c #FFC704",
",	c #FFEB6C",
"'	c #E3E6EA",
")	c #FFFEF9",
"!	c #FF9900",
"~	c #EBEDF0",
"{	c #FFFFFF",
"]	c #F4F5F6",
"^	c #7C7C7C",
"/	c #CB7425",
"(	c #667182",
"_	c #75797F",
":	c #E3E3E3",
"<	c #242222",
"[	c #7B8088",
"}	c #424954",
"|	c #F9FAFA",
"1	c #E8EAED",
"2	c #F0F1F3",
"3	c #F8F9F9",
"            .   ",
"           .+.  ",
"@#########.+$+. ",
"#%&******.+=$$+.",
"#-&;;;;;.+>,=+. ",
"#-&''''.+>)!+.  ",
"#-&~~~.+>{!+.#  ",
"#-&]].^{/!+.(#  ",
"#(_&&.^{:+._(#  ",
"#((((.<^^.(((#  ",
"#(([}....}[((#  ",
"#((}||||||}((#  ",
"#((}1&1111}((#  ",
"#((}2&2222}((#  ",
" #(}333333}((#  ",
"  ###########@  "};
