/* XPM */
static const char *savecam_xpm[] = {
"16 16 173 2",
"  	c None",
". 	c #AFADA8",
"+ 	c #5B5A59",
"@ 	c #2D2D2D",
"# 	c #B9B9B9",
"$ 	c #D8D8D4",
"% 	c #E0E0DC",
"& 	c #75736F",
"* 	c #B1B8BC",
"= 	c #BBC2CA",
"- 	c #A9B1BB",
"; 	c #928E8A",
"> 	c #787876",
", 	c #CAC8C8",
"' 	c #D0D7DF",
") 	c #B8CEDB",
"! 	c #B4CDD9",
"~ 	c #B1CDDC",
"{ 	c #A2C6E2",
"] 	c #93BEE7",
"^ 	c #92BCE8",
"/ 	c #91BBE5",
"( 	c #96BEE6",
"_ 	c #FBFCFD",
": 	c #3B3B3B",
"< 	c #C5C5C3",
"[ 	c #D6E1F0",
"} 	c #8AB6DD",
"| 	c #96BED8",
"1 	c #C4DCDF",
"2 	c #D9E8E4",
"3 	c #CFE2DB",
"4 	c #B8D8E3",
"5 	c #9DCAEE",
"6 	c #8FC2F2",
"7 	c #8FC4F3",
"8 	c #7AB5EA",
"9 	c #FCFEFF",
"0 	c #393939",
"a 	c #1E1E1E",
"b 	c #DFDEDC",
"c 	c #C5D7EB",
"d 	c #81B1E0",
"e 	c #9DC9E8",
"f 	c #CFE2EB",
"g 	c #FDFCFF",
"h 	c #F7F8F3",
"i 	c #D8E6D2",
"j 	c #C1DBDE",
"k 	c #A8D3F3",
"l 	c #99CCF9",
"m 	c #91C5F4",
"n 	c #7CB5EA",
"o 	c #F8FBFF",
"p 	c #313131",
"q 	c #333333",
"r 	c #D9D8D7",
"s 	c #B1CAE5",
"t 	c #8EB9E4",
"u 	c #A8CFE4",
"v 	c #D0E3E5",
"w 	c #DEE9D0",
"x 	c #DEEAC6",
"y 	c #D5E9D8",
"z 	c #B6D6DF",
"A 	c #53708E",
"B 	c #334B6B",
"C 	c #6A9CCB",
"D 	c #76B1E5",
"E 	c #F0F5FB",
"F 	c #2E2E2E",
"G 	c #343434",
"H 	c #D8D8D7",
"I 	c #B0C9E5",
"J 	c #8FBBE2",
"K 	c #A8CEE6",
"L 	c #C2DEE2",
"M 	c #D0E6DC",
"N 	c #8AA293",
"O 	c #1F2424",
"P 	c #1A2028",
"Q 	c #07090D",
"R 	c #000000",
"S 	c #1B2D47",
"T 	c #DAE0E4",
"U 	c #2D2E2E",
"V 	c #D6D5D4",
"W 	c #AEC7E2",
"X 	c #96C2EA",
"Y 	c #A0C9EA",
"Z 	c #7EA2B9",
"` 	c #2A3642",
" .	c #131512",
"..	c #263121",
"+.	c #354A31",
"@.	c #364C33",
"#.	c #34472F",
"$.	c #34462F",
"%.	c #0D130C",
"&.	c #C8CDCC",
"*.	c #2C2C2C",
"=.	c #D1CFCF",
"-.	c #B9D3EE",
";.	c #5579A7",
">.	c #172025",
",.	c #273122",
"'.	c #808D4B",
").	c #A7B265",
"!.	c #7EA27A",
"~.	c #719E89",
"{.	c #769E8A",
"].	c #76A189",
"^.	c #78A289",
"/.	c #699670",
"(.	c #D8E0DC",
"_.	c #262629",
":.	c #303030",
"<.	c #CED0D0",
"[.	c #5F676C",
"}.	c #2C3927",
"|.	c #608A64",
"1.	c #8EAF81",
"2.	c #C2C679",
"3.	c #B9C278",
"4.	c #7CA17E",
"5.	c #699781",
"6.	c #6A9880",
"7.	c #6B9880",
"8.	c #6B987E",
"9.	c #659379",
"0.	c #CED8D8",
"a.	c #242525",
"b.	c #2E2E2D",
"c.	c #C2C5C8",
"d.	c #8FA391",
"e.	c #6F967C",
"f.	c #709D89",
"g.	c #7DA37D",
"h.	c #96A96A",
"i.	c #9CB182",
"j.	c #A7BBAF",
"k.	c #B1C2BE",
"l.	c #A6A6A2",
"m.	c #A7B4B4",
"n.	c #89A497",
"o.	c #C6CFD0",
"p.	c #222424",
"q.	c #B7BBC0",
"r.	c #94ADA1",
"s.	c #67927D",
"t.	c #9CB2A7",
"u.	c #B7BFC2",
"v.	c #4D4E4E",
"w.	c #55575B",
"x.	c #555757",
"y.	c #1B1B1C",
"z.	c #2A2B2B",
"A.	c #ACAFB4",
"B.	c #96ADA2",
"C.	c #98ACA4",
"D.	c #7E8486",
"E.	c #6C6B6A",
"F.	c #D9D8D3",
"G.	c #E6E5E0",
"H.	c #E6E6E2",
"I.	c #E7E6E3",
"J.	c #262829",
"K.	c #969DA2",
"L.	c #7D8588",
"M.	c #DCDCD8",
"N.	c #1A1A1A",
"O.	c #262929",
"P.	c #E5E4E1",
"                                ",
"            . + + + @ + # $     ",
"      % + @ & # * = - # # ; > + ",
"    + @ , ' ) ! ~ { ] ^ / ( _ : ",
"  @ < [ } | 1 2 3 4 5 6 7 8 9 0 ",
"a b c d e f g h i j k l m n o p ",
"q r s t u v w x y z A B C D E F ",
"G H I J K L M N O P Q R Q S T U ",
"q V W X Y Z `  ...+.@.#.$.%.&.*.",
"p =.-.;.>.,.'.).!.~.{.].^./.(._.",
":.<.[.}.|.1.2.3.4.5.6.7.8.9.0.a.",
"b.c.d.e.f.g.h.i.j.k.l.l.m.n.o.p.",
"*.q.r.s.{.t.u.v.w.v.x.x.m.m.o.y.",
"z.A.B.C.D.v.E.l.F.G.H.I.F.; l.+ ",
"J.K.L.v.v.M.                    ",
"N.O.v.P.                        "};
