/* XPM */
static const char *saveimage_xpm[] = {
"16 16 113 2",
"  	c None",
". 	c #2A2A28",
"+ 	c #222222",
"@ 	c #1B1B1B",
"# 	c #1C1C1C",
"$ 	c #1D1D1C",
"% 	c #1D1C1C",
"& 	c #1C1C1B",
"* 	c #1F1E1D",
"= 	c #282726",
"- 	c #636363",
"; 	c #FDFDFD",
"> 	c #D3D3D3",
", 	c #F7F7F7",
"' 	c #F9F9F9",
") 	c #FAFAFA",
"! 	c #FAF9F9",
"~ 	c #202020",
"{ 	c #282725",
"] 	c #585555",
"^ 	c #FEFEFE",
"/ 	c #332828",
"( 	c #795D5D",
"_ 	c #886B69",
": 	c #8E716D",
"< 	c #8F726E",
"[ 	c #8F716F",
"} 	c #957574",
"| 	c #E5E5E5",
"1 	c #20201F",
"2 	c #292827",
"3 	c #646464",
"4 	c #6E5555",
"5 	c #CA9F9A",
"6 	c #E2B4AA",
"7 	c #EDC0B1",
"8 	c #EDBFB1",
"9 	c #EDBDB2",
"0 	c #BC9490",
"a 	c #E5E5E4",
"b 	c #212120",
"c 	c #FCFCFC",
"d 	c #8C6D6C",
"e 	c #D1A69E",
"f 	c #E7BAAB",
"g 	c #FEFEFD",
"h 	c #BD968F",
"i 	c #1A1A1A",
"j 	c #D8D8D8",
"k 	c #3A2C2C",
"l 	c #745959",
"m 	c #8F6E6E",
"n 	c #B18988",
"o 	c #DBAEA6",
"p 	c #EDBFAF",
"q 	c #FEFDFD",
"r 	c #EEC0B1",
"s 	c #BD958F",
"t 	c #7D6161",
"u 	c #CE9E9E",
"v 	c #D2A2A2",
"w 	c #DBA9A8",
"x 	c #E8B6B1",
"y 	c #201F1F",
"z 	c #1E1E1D",
"A 	c #8A6A6A",
"B 	c #E3AEAE",
"C 	c #E6B1B1",
"D 	c #E9B3B3",
"E 	c #EAB5B4",
"F 	c #DCDFE0",
"G 	c #DADDDF",
"H 	c #FAFAFB",
"I 	c #F8F8FA",
"J 	c #D9DADB",
"K 	c #D1D3D6",
"L 	c #010101",
"M 	c #544040",
"N 	c #564242",
"O 	c #715757",
"P 	c #E8B2B2",
"Q 	c #E9EAEC",
"R 	c #3B4758",
"S 	c #1D2935",
"T 	c #3F4650",
"U 	c #020202",
"V 	c #8F8F8F",
"W 	c #FBFBFC",
"X 	c #494353",
"Y 	c #786E89",
"Z 	c #585858",
"` 	c #DCE1E5",
" .	c #1F1E1E",
"..	c #5D5C74",
"+.	c #9A99C0",
"@.	c #545454",
"#.	c #EDEEF0",
"$.	c #1F1F1E",
"%.	c #F5F5F5",
"&.	c #9998BF",
"*.	c #4F4F4F",
"=.	c #1C2632",
"-.	c #F2F2F2",
";.	c #63627A",
">.	c #7B7A99",
",.	c #7C7B99",
"'.	c #4B4B4B",
").	c #EEEEEE",
"!.	c #E4E4E4",
"~.	c #484848",
"{.	c #232323",
"].	c #171716",
"^.	c #1F1F1F",
"      . + @ # $ % & & @ @ *     ",
"    = - ; > , ' ) ) ! ! ) ~     ",
"  { ] ; ^ / ( _ : < [ } | 1     ",
"2 3 ; ^ ^ 4 5 6 7 8 9 0 a 1     ",
"b c ; ; ; d e f g ^ 7 h a 1     ",
"i j k l m n o p q ^ r s a 1     ",
"& , t u v w x 9 7 8 9 0 a y     ",
"z ) A B C D E F G H I J K K     ",
"z ) L M N O P Q R S S S S S S T ",
"z ) U L L L L ) S V W W W W V S ",
"z ) X Y Y Y Y I S Z ` ` ` ` Z S ",
" ., ..+.+.+.+.J S @.#.#.#.#.@.S ",
"$.%...&.+.+.+.K S *.=.=.=.=.*.S ",
"$.-.;.>.,.,.,.K S '.^ ^ ^ ^ '.S ",
"$.).!.!.!.!.!.K S ~.^ {.^ ^ ~.S ",
"].^.^.^.^.^.^.K ^.S S S S S S T "};
