/* XPM */
static const char *savemat_xpm[] = {
"16 16 101 2",
"  	c None",
". 	c #323D56",
"+ 	c #18293A",
"@ 	c #192739",
"# 	c #546379",
"$ 	c #E0E2E3",
"% 	c #FBFCFC",
"& 	c #53667E",
"* 	c #4A6179",
"= 	c #AEB3BD",
"- 	c #49586C",
"; 	c #314054",
"> 	c #313F55",
", 	c #7C8A9B",
"' 	c #C1C6CE",
") 	c #FEFEFE",
"! 	c #586B87",
"~ 	c #4E5E7D",
"{ 	c #8693A3",
"] 	c #F0F1F4",
"^ 	c #9097A3",
"/ 	c #536176",
"( 	c #F8FAFA",
"_ 	c #AAB2BF",
": 	c #64748F",
"< 	c #596D8A",
"[ 	c #C8CFD2",
"} 	c #4F6177",
"| 	c #838E9D",
"1 	c #44566A",
"2 	c #DADDE1",
"3 	c #8C96A9",
"4 	c #62768D",
"5 	c #57728C",
"6 	c #FBFBFB",
"7 	c #EEEFF0",
"8 	c #43576C",
"9 	c #3E4F67",
"0 	c #CDD0D6",
"a 	c #DFE0E2",
"b 	c #D2D7DA",
"c 	c #A7AFBA",
"d 	c #9FA9B7",
"e 	c #A5AEB9",
"f 	c #BABFC5",
"g 	c #C3C8CD",
"h 	c #BEC3C7",
"i 	c #728193",
"j 	c #57697A",
"k 	c #D5D9DD",
"l 	c #556981",
"m 	c #ECECEE",
"n 	c #556B81",
"o 	c #485E77",
"p 	c #465A70",
"q 	c #EAECED",
"r 	c #36475C",
"s 	c #E5E6E8",
"t 	c #FAFBFB",
"u 	c #4F697E",
"v 	c #DCDFE0",
"w 	c #DADDDF",
"x 	c #FAFAFB",
"y 	c #F8F8FA",
"z 	c #D9DADB",
"A 	c #D1D3D6",
"B 	c #B3B9C3",
"C 	c #ABB5BE",
"D 	c #A0AAB4",
"E 	c #AAB1BC",
"F 	c #AFB4BE",
"G 	c #9CA4B1",
"H 	c #E9EAEC",
"I 	c #3B4758",
"J 	c #1D2935",
"K 	c #3F4650",
"L 	c #404F65",
"M 	c #E7E8EC",
"N 	c #6C7F90",
"O 	c #42546B",
"P 	c #EAECF0",
"Q 	c #FAFAFA",
"R 	c #8F8F8F",
"S 	c #FBFBFC",
"T 	c #8A95A3",
"U 	c #87909F",
"V 	c #405165",
"W 	c #E4E7EA",
"X 	c #585858",
"Y 	c #DCE1E5",
"Z 	c #425165",
"` 	c #C6CBD1",
" .	c #DFE2E6",
"..	c #3F4E62",
"+.	c #545454",
"@.	c #EDEEF0",
"#.	c #4F4F4F",
"$.	c #1C2632",
"%.	c #4B4B4B",
"&.	c #484848",
"*.	c #232323",
"        . + + @ .               ",
"    . # $ % & * = - ;           ",
"  > , ' ) ) ! ~ { ] ^ .         ",
"  / ( _ : < ) ) [ } | 1         ",
". 2 % 3 4 5 6 ) 7 8 9 0 >       ",
"+ a b c d e f g h i j k @       ",
"@ & l m ) ) n o p ] q r @       ",
"@ * ~ s t % u v w x y z A       ",
". B C D E F G H I J J J J J J K ",
"  L M N 8 O P Q J R S S S S R J ",
"  ; T U 9 V W y J X Y Y Y Y X J ",
"    > Z `  ...z J +.@.@.@.@.+.J ",
"        > @ @ A J #.$.$.$.$.#.J ",
"                J %.) ) ) ) %.J ",
"                J &.) *.) ) &.J ",
"                  J J J J J J K "};
