/* XPM */
static char * save_xpm[] = {
"16 16 85 1",
" 	c None",
".	c #B0CBCF",
"+	c #9CB2B6",
"@	c #8CA0A3",
"#	c #93A8AB",
"$	c #3D4749",
"%	c #000000",
"&	c #AEC9CD",
"*	c #899DA0",
"=	c #96ACAF",
"-	c #4B5658",
";	c #A6C4C9",
">	c #8DA6AA",
",	c #88A1A5",
"'	c #859DA1",
")	c #80979B",
"!	c #3B4547",
"~	c #6F8386",
"{	c #97BAC0",
"]	c #8BABB1",
"^	c #7B989D",
"/	c #8EAFB5",
"(	c #98BBC1",
"_	c #94B6BC",
":	c #769297",
"<	c #677F83",
"[	c #54676B",
"}	c #657D81",
"|	c #8BB2B9",
"1	c #709095",
"2	c #405255",
"3	c #5D777B",
"4	c #7FABB2",
"5	c #7DA8AF",
"6	c #314244",
"7	c #445A5E",
"8	c #789EA4",
"9	c #6A8E94",
"0	c #678A90",
"a	c #3A4E52",
"b	c #557277",
"c	c #72A2AA",
"d	c #5E868D",
"e	c #040607",
"f	c #71A0A8",
"g	c #5C8389",
"h	c #344A4E",
"i	c #4C6C71",
"j	c #6599A2",
"k	c #3E5F64",
"l	c #6398A1",
"m	c #527C83",
"n	c #2E464A",
"o	c #43666C",
"p	c #5B8E97",
"q	c #5B8D96",
"r	c #223438",
"s	c #598A93",
"t	c #4A737A",
"u	c #2A4145",
"v	c #3D5F65",
"w	c #538189",
"x	c #54838B",
"y	c #517E86",
"z	c #324D52",
"A	c #4F7B83",
"B	c #446A70",
"C	c #273C40",
"D	c #38575D",
"E	c #477076",
"F	c #4C777E",
"G	c #3D6065",
"H	c #283E42",
"I	c #2A4246",
"J	c #2E474B",
"K	c #3C5E63",
"L	c #324E53",
"M	c #020404",
"N	c #1C2B2E",
"O	c #253A3E",
"P	c #213336",
"Q	c #1E2F32",
"R	c #1D2D2F",
"S	c #203235",
"T	c #152123",
"                ",
"    .+@#$%  &*=-",
"    ;% ;>,')!%;~",
"{]^^/% (_:^^^<[}",
"|||||% ||||||123",
"44567%  894440ab",
"cccde    fcccghi",
"jjjjk%  ljjjjmno",
"ppppqr%sppppptuv",
"wxxxxyzAxxxxxBCD",
"EFFFFFFFFFFFFGHI",
"JBBBBBBBBBBBBKLM",
"%NOPQRNNNRQSST% ",
" %%%%%%%%%%%%%  ",
"   %%%%%%%%%    ",
"                "};
