/* XPM */
static const char *save_xpm[] = {
"16 16 19 1",
" 	c None",
".	c #696C71",
"+	c #282D33",
"@	c #A4AAB5",
"#	c #393F48",
"$	c #EBEDEF",
"%	c #677283",
"&	c #DBDEE3",
"*	c #E3E6EA",
"=	c #EBEDF0",
"-	c #667182",
";	c #F4F5F6",
">	c #75797F",
",	c #7B8088",
"'	c #424954",
")	c #F9FAFA",
"!	c #E8EAED",
"~	c #F0F1F3",
"{	c #F8F9F9",
"                ",
" .++++++++++++. ",
" +@#$$$$$$$$#@+ ",
" +%#&&&&&&&&#%+ ",
" +%#********#%+ ",
" +%#========#-+ ",
" +%#;;;;;;;;#-+ ",
" +->########>-+ ",
" +------------+ ",
" +--,'''''',--+ ",
" +--'))))))'--+ ",
" +--'!#!!!!'--+ ",
" +--'~#~~~~'--+ ",
"  +-'{{{{{{'--+ ",
"   +++++++++++. ",
"                "};
