/* XPM */
static const char * select_xpm[] = {
"16 15 52 1",
" 	c None",
".	c #D9D9D9",
"+	c #D3D3D3",
"@	c #A0A0A0",
"#	c #D2D2D2",
"$	c #C4C4C4",
"%	c #C3C3C3",
"&	c #C2C2C2",
"*	c #989898",
"=	c #C5C5C5",
"-	c #A9A9A9",
";	c #9D9D9D",
">	c #999999",
",	c #898989",
"'	c #868686",
")	c #B0B0B0",
"!	c #C6C6C6",
"~	c #8E8E8E",
"{	c #B9B9B9",
"]	c #9C9C9C",
"^	c #ADADAD",
"/	c #9A9A9A",
"(	c #FFFFFF",
"_	c #969696",
":	c #B2B2B2",
"<	c #DADADA",
"[	c #8F8F8F",
"}	c #A2A2A2",
"|	c #B6B6B6",
"1	c #DDDDDD",
"2	c #C8C8C8",
"3	c #909090",
"4	c #A5A5A5",
"5	c #B8B8B8",
"6	c #9E9E9E",
"7	c #ABABAB",
"8	c #C7C7C7",
"9	c #515151",
"0	c #C9C9C9",
"a	c #7B7B7B",
"b	c #C1C1C1",
"c	c #B5B5B5",
"d	c #9F9F9F",
"e	c #B4B4B4",
"f	c #757575",
"g	c #CFCFCF",
"h	c #4B4B4B",
"i	c #F4F4F4",
"j	c #949494",
"k	c #BEBEBE",
"l	c #BBBBBB",
"m	c #828282",
".++++++++++++++@",
"#$$$$%&$$$$$$$$*",
"+====-;$$======>",
"+====,')!$=====>",
"+====~{]^!=====>",
"+====~/(_:=====>",
"+====~;<([$$===>",
"+====~}|(1^2===>",
"+====345(678===>",
"+====~9*0ab%===>",
"+====cdef*g$===>",
"+===$=2!hij====>",
"+===$=$$4-k====>",
"+!!!!!!!!$8!!!!>",
"l______________m"};
