/* XPM */
static const char *select_xpm[] = {
"16 16 51 1",
" 	c None",
".	c #026702",
"+	c #6FAD66",
"@	c #DBF3CE",
"#	c #D5EFC7",
"$	c #BBD9A4",
"%	c #98BD76",
"&	c #72A453",
"*	c #D4EFC9",
"=	c #D1EDC5",
"-	c #D2EEC6",
";	c #BCDCA9",
">	c #98BF7B",
",	c #7DAB5C",
"'	c #659D4B",
")	c #C9E6B6",
"!	c #FBFBFC",
"~	c #CBE9BD",
"{	c #B1D39A",
"]	c #93BA73",
"^	c #75A656",
"/	c #80AD62",
"(	c #E0EBDA",
"_	c #393F48",
":	c #6B9F4C",
"<	c #91BA75",
"[	c #116500",
"}	c #699E4C",
"|	c #AED094",
"1	c #CCE7B6",
"2	c #F8F8F9",
"3	c #8DB972",
"4	c #BEDCA6",
"5	c #DCDFE4",
"6	c #F9F9FA",
"7	c #97C588",
"8	c #E1E3E8",
"9	c #F9FAFA",
"0	c #88B366",
"a	c #E6E8EC",
"b	c #FAFAFB",
"c	c #85B162",
"d	c #84B060",
"e	c #EBEDF0",
"f	c #87B265",
"g	c #86B163",
"h	c #F0F1F3",
"i	c #87B264",
"j	c #F5F6F7",
"k	c #8BB569",
"l	c #88B365",
"        ....    ",
"       +@#$%&   ",
"      +*=-;>,'  ",
"     .)!!~{]^/. ",
"     ((!_!((:<. ",
"   [[[[!__!(}|. ",
"  [1111!_2_!34. ",
" [11111!_56_!7  ",
"[======!_889_!  ",
"[000000!_aaab_! ",
"[0ccccd!_eeee!_ ",
"[0ffffg!_hhh___ ",
"[00000i!_j_hh_  ",
"[0kkkkl!__!_hh_ ",
"[000000!_! _h_  ",
"[[[[[[[!!   _   "};
