/* XPM */
static const char * start_xpm[] = {
"16 16 30 1",
" 	c None",
".	c #A2A2A2",
"+	c #8C8C8C",
"@	c #979797",
"#	c #707070",
"$	c #6C6C6C",
"%	c #4C4C4C",
"&	c #575757",
"*	c #8D8D8D",
"=	c #464646",
"-	c #363636",
";	c #202020",
">	c #343434",
",	c #454545",
"'	c #555555",
")	c #3D3D3D",
"!	c #232323",
"~	c #030303",
"{	c #0D0D0D",
"]	c #1E1E1E",
"^	c #535353",
"/	c #757575",
"(	c #222222",
"_	c #000000",
":	c #010101",
"<	c #0B0B0B",
"[	c #161616",
"}	c #212121",
"|	c #333333",
"1	c #020202",
"                ",
"                ",
"                ",
"    .+@         ",
"    #$%&*       ",
"    =-;>,'*     ",
"    )!~{]>,^/   ",
"    )(_:~<[[__  ",
"    )(________  ",
"    )}________  ",
"    |1_______   ",
"    _______     ",
"    _____       ",
"     __         ",
"                ",
"                "};
