/* XPM */
static const char *start_xpm[] = {
"16 16 92 2",
"  	c None",
". 	c #262626",
"+ 	c #2D2D2D",
"@ 	c #1E1E1E",
"# 	c #3C3C3C",
"$ 	c #FCFCFC",
"% 	c #D2D2D2",
"& 	c #4A4A4A",
"* 	c #1D1D1D",
"= 	c #444444",
"- 	c #FFFFFF",
"; 	c #FEFEFE",
"> 	c #BFBFBF",
", 	c #3E3E3E",
"' 	c #1C1C1C",
") 	c #414141",
"! 	c #F6F6F7",
"~ 	c #F7F7F8",
"{ 	c #FBFBFB",
"] 	c #F5F5F5",
"^ 	c #A8A9A9",
"/ 	c #333334",
"( 	c #1B1B1B",
"_ 	c #404040",
": 	c #EFF0F1",
"< 	c #EEEFF0",
"[ 	c #F1F2F3",
"} 	c #EBECEC",
"| 	c #909191",
"1 	c #2C2C2C",
"2 	c #FAFAFA",
"3 	c #EAEBEB",
"4 	c #E7E9EA",
"5 	c #EBEDEE",
"6 	c #DFE0E0",
"7 	c #797A7A",
"8 	c #272727",
"9 	c #3B3B3D",
"0 	c #F6F7F8",
"a 	c #E3E5E7",
"b 	c #E1E3E5",
"c 	c #E1E3E4",
"d 	c #E5E8E8",
"e 	c #EBEDED",
"f 	c #CED0D0",
"g 	c #2A2B2B",
"h 	c #39393A",
"i 	c #F3F4F4",
"j 	c #DDDFE1",
"k 	c #DADDDF",
"l 	c #DFE2E3",
"m 	c #E5E7E8",
"n 	c #C7C9CA",
"o 	c #282929",
"p 	c #373738",
"q 	c #D6D9DB",
"r 	c #D4D7D9",
"s 	c #DADCDE",
"t 	c #CACDCD",
"u 	c #656768",
"v 	c #222323",
"w 	c #191919",
"x 	c #343436",
"y 	c #E9EAEB",
"z 	c #CFD3D5",
"A 	c #CDD1D3",
"B 	c #D3D6D8",
"C 	c #DCDFE0",
"D 	c #CCCFD0",
"E 	c #6F7272",
"F 	c #242425",
"G 	c #161616",
"H 	c #323233",
"I 	c #E3E5E6",
"J 	c #C9CDD0",
"K 	c #CCD0D3",
"L 	c #D7DADC",
"M 	c #CED0D2",
"N 	c #797B7C",
"O 	c #252626",
"P 	c #2E3030",
"Q 	c #CED1D3",
"R 	c #818386",
"S 	c #272829",
"T 	c #151515",
"U 	c #28292A",
"V 	c #C9CCCE",
"W 	c #898C8D",
"X 	c #2C2D2D",
"Y 	c #1A1A1B",
"Z 	c #1F2020",
"` 	c #141414",
"                                ",
"    . + @                       ",
"    # $ % & *                   ",
"    = - ; $ > , '               ",
"    ) ; ! ~ { ] ^ / (           ",
"    _ $ : < < [ ~ } | 1 '       ",
"    , 2 3 4 4 4 4 5 [ 6 7 8 @   ",
"    9 0 a b b c c c c d e f g   ",
"    h i j k k k k k k l m n o   ",
"    p < q r r r r s c t u v w   ",
"    x y z A A B C D E F G       ",
"    H I J K L M N O G           ",
"    P C r Q R S T               ",
"    U V W X T                   ",
"    Y Z `                       ",
"                                "};
