/* XPM */
static const char * stop_xpm[] = {
"16 16 15 1",
" 	c None",
".	c #FFFFFF",
"+	c #969696",
"@	c #949494",
"#	c #868686",
"$	c #676767",
"%	c #0E0E0E",
"&	c #616161",
"*	c #595959",
"=	c #404040",
"-	c #111111",
";	c #000000",
">	c #3D3D3D",
",	c #222222",
"'	c #131313",
"                ",
"                ",
"   ........     ",
"   +@######$%   ",
"   &*======-;   ",
"   >,;;;;;;;;;  ",
"   >,;;;;;;;;;  ",
"   >,;;;;;;;;;  ",
"   >,;;;;;;;;;  ",
"   >,;;;;;;;;;  ",
"   >,;;;;;;;;;  ",
"   ';;;;;;;;;;  ",
"   ;;;;;;;;;;;  ",
"    ;;;;;;;;;   ",
"                ",
"                "};
