/* XPM */
static const char *stop_xpm[] = {
"16 16 19 1",
" 	c None",
".	c #2A2A2C",
"+	c #EEEFF0",
"@	c #D2D2D2",
"#	c #FEFEFE",
"$	c #CED0D0",
"%	c #F6F6F7",
"&	c #EFF0F1",
"*	c #EAEBEB",
"=	c #E3E5E7",
"-	c #DDDFE1",
";	c #D6D9DB",
">	c #CFD3D5",
",	c #E3E5E6",
"'	c #C9CDD0",
")	c #DCDFE0",
"!	c #D4D7D9",
"~	c #C9CCCE",
"{	c #898C8D",
"                ",
"  ............  ",
" .+@@@@@@@@@@@. ",
" .+##########$. ",
" .+%%%%%%%%%%$. ",
" .+&&&&&&&&&&$. ",
" .+**********$. ",
" .+==========$. ",
" .+----------$. ",
" .+;;;;;;;;;;$. ",
" .+>>>>>>>>>>$. ",
" .,''''''''''$. ",
" .)!!!!!!!!!!$. ",
" .~{{{{{{{{{{{. ",
"  ............  ",
"                "};
