/* XPM */
static const char *sundirection_xpm[] = {
"16 16 8 1",
" 	c None",
".	c #ED7905",
"+	c #EDC305",
"@	c #E36505",
"#	c #ED9805",
"$	c #EDDE05",
"%	c #000000",
"&	c #ED0505",
"         .      ",
"    ... ... ... ",
"    ..+     +.. ",
"    .+ @@@@@ +. ",
"      @#+++#@   ",
"    . @+$$$+@ . ",
"   .. @+$$$+@ ..",
"    . @+$$$+@ . ",
"      @#+++#@   ",
"    .+ @@@@@ +. ",
"    ..+     +.. ",
"    %.. ... ... ",
"%  %     .      ",
"%&%             ",
"%%&             ",
"%%%%            "};
