/* XPM */
static const char * translateCam_xpm[] = {
"16 15 85 1",
" 	c None",
".	c #D9D9D9",
"+	c #D3D3D3",
"@	c #A0A0A0",
"#	c #D2D2D2",
"$	c #C4C4C4",
"%	c #C2C2C2",
"&	c #989898",
"*	c #C5C5C5",
"=	c #7F7F82",
"-	c #808083",
";	c #999999",
">	c #AAAAAB",
",	c #48484F",
"'	c #3C3C45",
")	c #AEAEAE",
"!	c #C7C7C7",
"~	c #C6C6C6",
"{	c #757578",
"]	c #8C8C91",
"^	c #7B7B82",
"/	c #767679",
"(	c #C8C8C7",
"_	c #C9C9C8",
":	c #9A9A9B",
"<	c #ABABAC",
"[	c #D6D6D4",
"}	c #8C8C8F",
"|	c #8E8E92",
"1	c #B4B4B4",
"2	c #949496",
"3	c #C9C9C9",
"4	c #B5B5B4",
"5	c #86868A",
"6	c #5C5C62",
"7	c #65656B",
"8	c #89898D",
"9	c #69696E",
"0	c #6A6A6F",
"a	c #8A8A8D",
"b	c #717176",
"c	c #4A4A51",
"d	c #89898C",
"e	c #B5B5B5",
"f	c #B1B1B1",
"g	c #48484E",
"h	c #6B6B73",
"i	c #5F5F64",
"j	c #7D7D82",
"k	c #65656A",
"l	c #626268",
"m	c #7D7D80",
"n	c #58585E",
"o	c #919198",
"p	c #494951",
"q	c #B2B2B3",
"r	c #A5A5A5",
"s	c #848486",
"t	c #D0D0CF",
"u	c #8C8C90",
"v	c #8D8D91",
"w	c #D2D2D1",
"x	c #808081",
"y	c #AFAFB2",
"z	c #A4A4A6",
"A	c #C8C8C8",
"B	c #C4C4C3",
"C	c #B3B3B5",
"D	c #828285",
"E	c #616165",
"F	c #747477",
"G	c #C0C0C0",
"H	c #7A7A7D",
"I	c #74747C",
"J	c #A9A9B1",
"K	c #7A7A7C",
"L	c #BEBEBE",
"M	c #64646A",
"N	c #77777D",
"O	c #BFBFBF",
"P	c #AFAFB0",
"Q	c #AEAEAF",
"R	c #BBBBBB",
"S	c #969696",
"T	c #828282",
".++++++++++++++@",
"#$$$$$$%%$$$$$$&",
"+****$*=-*$****;",
"+***$$>,')$$***;",
"+**$!~{]^/*($**;",
"+$~_:<[}|+123~$;",
"+$4567890abcde$;",
"+$fghijklmnopq$;",
"+$~r|stuvwxyz~$;",
"+*$ABCD9EFeGA$*;",
"+****AHIJKA****;",
"+****$LMNO$****;",
"+******PQ******;",
"+~~~~~~~~~~~~~~;",
"RSSSSSSSSSSSSSST"};
