/* XPM */
static const char * translateCam_xpm[] = {
"16 15 64 1",
" 	c None",
".	c #DADADA",
"+	c #D3D3D3",
"@	c #A0A0A0",
"#	c #C5C5C5",
"$	c #999999",
"%	c #848486",
"&	c #858589",
"*	c #B0B0B0",
"=	c #515158",
"-	c #44444C",
";	c #B3B3B3",
">	c #C9C9C9",
",	c #606064",
"'	c #727277",
")	c #696971",
"!	c #6A6A6E",
"~	c #C8C8C8",
"{	c #BDBDBD",
"]	c #A2A2A3",
"^	c #87878B",
"/	c #88888C",
"(	c #A9A9A9",
"_	c #BEBEBE",
":	c #9A9A9B",
"<	c #6A6A71",
"[	c #818184",
"}	c #86868A",
"|	c #919193",
"1	c #525258",
"2	c #9C9C9E",
"3	c #A8A8A8",
"4	c #3A3A42",
"5	c #7A7A81",
"6	c #47474E",
"7	c #4A4A51",
"8	c #494951",
"9	c #494950",
"0	c #46464D",
"a	c #83838A",
"b	c #43434B",
"c	c #A6A6A7",
"d	c #9F9F9F",
"e	c #55555C",
"f	c #8D8D90",
"g	c #87878A",
"h	c #838384",
"i	c #85858C",
"j	c #9E9EA0",
"k	c #C1C1C1",
"l	c #A6A6A8",
"m	c #88888B",
"n	c #C0C0C0",
"o	c #636368",
"p	c #787880",
"q	c #95959C",
"r	c #6C6C70",
"s	c #C9C9C8",
"t	c #B2B2B2",
"u	c #616167",
"v	c #8B8B93",
"w	c #B0B0B1",
"x	c #8B8B8E",
"y	c #89898C",
".++++++++++++++@",
"+##############$",
"+######%&######$",
"+#####*=-;#####$",
"+####>,')!~####$",
"+###{]#^/#(_###$",
"+##:<[#}^#|12##$",
"+#345677890abc#$",
"+##def#/g#hij##$",
"+###kl#}m#3n###$",
"+####~opqrs####$",
"+#####tuvw#####$",
"+######xy######$",
"+##############$",
"+##############$"};
