/* XPM */
static const char *translateCam_xpm[] = {
"16 16 67 1",
" 	c None",
".	c #626365",
"+	c #393F47",
"@	c #616367",
"#	c #5D5D5E",
"$	c #FEFEFE",
"%	c #5B5B5B",
"&	c #595E64",
"*	c #E5E6E8",
"=	c #999B9E",
"-	c #505050",
";	c #616263",
">	c #7F8388",
",	c #D7D9DB",
"'	c #55585E",
")	c #67696B",
"!	c #444951",
"~	c #F2F3F4",
"{	c #4F545B",
"]	c #565A60",
"^	c #65696E",
"/	c #5B5F65",
"(	c #E0E1E3",
"_	c #909497",
":	c #4A4F56",
"<	c #878B91",
"[	c #66676A",
"}	c #50565B",
"|	c #50555B",
"1	c #626364",
"2	c #7C8084",
"3	c #F5F6F7",
"4	c #EAEBEE",
"5	c #E9EBED",
"6	c #E7E9EC",
"7	c #60666D",
"8	c #676A71",
"9	c #5A5A5A",
"0	c #424750",
"a	c #F8F9FA",
"b	c #EBEDEF",
"c	c #F0F1F3",
"d	c #F4F5F7",
"e	c #EFF0F2",
"f	c #E9EBEE",
"g	c #8A8E94",
"h	c #66686A",
"i	c #BCBFC3",
"j	c #434851",
"k	c #EAECEE",
"l	c #F0F2F3",
"m	c #EBECEF",
"n	c #C6C9CD",
"o	c #F1F2F3",
"p	c #F4F5F6",
"q	c #EAECEF",
"r	c #BEC1C5",
"s	c #ECEDF0",
"t	c #F1F2F4",
"u	c #CDD0D4",
"v	c #BBBEC3",
"w	c #777B81",
"x	c #636465",
"y	c #C4C7CA",
"z	c #EFF1F3",
"A	c #B0B3B8",
"B	c #6A6C6F",
"       .+@      ",
"   #+# +$+@+%   ",
"   +$+ +$&+$+   ",
"   +*=#+$&&$+-+.",
"   ;>,'+$&&$+)$+",
"    !~{&$&&$]^$/",
"    +(_+$++$:$<[",
".}| 1234$56$7$+ ",
"+$$890abcdef$gh ",
" +i$+jkbldcmk+  ",
"  +n$$kbopcm4+  ",
"   +66kbopcqf+  ",
"   +r6kstpcqu+  ",
"    +vkstpckwx  ",
"     +ystpzAB   ",
"      ++++++    "};
