/* XPM */
static const char *zoomCam_xpm[] = {
"16 16 42 1",
" 	c None",
".	c #000000",
"+	c #5D5D5E",
"@	c #585B60",
"#	c #3A4048",
"$	c #3A4149",
"%	c #5D5E5E",
"&	c #646568",
"*	c #5E666B",
"=	c #9FADAF",
"-	c #C2DADC",
";	c #9EADAF",
">	c #535B64",
",	c #5A6169",
"'	c #E0E8E9",
")	c #FEFEFE",
"!	c #E4EEEF",
"~	c #CADEE0",
"{	c #C1D2D5",
"]	c #5C646B",
"^	c #A6B1B3",
"/	c #D1E2E4",
"(	c #A5B1B4",
"_	c #393F47",
":	c #D8E6E8",
"<	c #EBF2F3",
"[	c #DFEBEC",
"}	c #B2B8B9",
"|	c #E6EFEF",
"1	c #B3B9BA",
"2	c #5E6369",
"3	c #E0E6E6",
"4	c #EDF3F3",
"5	c #E1E6E6",
"6	c #5D6369",
"7	c #62676E",
"8	c #BABEBE",
"9	c #F4F7F7",
"0	c #61666C",
"a	c #B9B9B9",
"b	c #585C60",
"c	c #717273",
"             .  ",
"             .  ",
"  +@#$@%   .....",
" &*=--;>&    .  ",
"%,')!~~{]+   .  ",
"@^)))///(@      ",
"_:<)<::::$ .....",
"_[[[[[[[[$      ",
"@}||||||1@      ",
"+23444456$      ",
" &789980#a.     ",
"  +b$$b$aaa.    ",
"        .aaa.   ",
"         .aa.   ",
"          ..c   ",
"                "};
