/* XPM */
static const char * zoomCam_xpm[] = {
"16 15 100 2",
"  	c None",
". 	c #D9D9D9",
"+ 	c #D3D3D3",
"@ 	c #A0A0A0",
"# 	c #D2D2D2",
"$ 	c #C4C4C4",
"% 	c #989898",
"& 	c #C5C5C5",
"* 	c #C0C0C0",
"= 	c #C1C1C1",
"- 	c #C1C1C0",
"; 	c #999999",
"> 	c #C6C6C6",
", 	c #939394",
"' 	c #9D9D9F",
") 	c #9D9DA0",
"! 	c #9B9B9C",
"~ 	c #98989B",
"{ 	c #949496",
"] 	c #878789",
"^ 	c #CBCBCB",
"/ 	c #6E6D73",
"( 	c #95959D",
"_ 	c #9A99A3",
": 	c #94949B",
"< 	c #8E8D96",
"[ 	c #7E7E86",
"} 	c #6E6E76",
"| 	c #45454C",
"1 	c #CACAC9",
"2 	c #CBCACA",
"3 	c #666D74",
"4 	c #8A8C93",
"5 	c #90949A",
"6 	c #8B8F96",
"7 	c #878F96",
"8 	c #818087",
"9 	c #717179",
"0 	c #494950",
"a 	c #C8C8C9",
"b 	c #C9CBCB",
"c 	c #917275",
"d 	c #BCC1C6",
"e 	c #BEC4C8",
"f 	c #BEC3C7",
"g 	c #B99B9F",
"h 	c #828890",
"i 	c #76767C",
"j 	c #4A4A51",
"k 	c #C9C9C9",
"l 	c #C5CCCC",
"m 	c #D47B79",
"n 	c #FFFFFF",
"o 	c #FFA5A4",
"p 	c #768A92",
"q 	c #76757C",
"r 	c #C5CBCB",
"s 	c #CC7C81",
"t 	c #FAFDFF",
"u 	c #FEFDFD",
"v 	c #FDFDFD",
"w 	c #F7A2A2",
"x 	c #6F8189",
"y 	c #717077",
"z 	c #49494F",
"A 	c #CACAC8",
"B 	c #C4CCCC",
"C 	c #CD8086",
"D 	c #F2FFFF",
"E 	c #F6FFFF",
"F 	c #F4FFFF",
"G 	c #F7AAA8",
"H 	c #63757B",
"I 	c #696970",
"J 	c #46464D",
"K 	c #C7CECE",
"L 	c #A9393A",
"M 	c #CA7172",
"N 	c #CB6D6E",
"O 	c #CB6C6E",
"P 	c #C84C4C",
"Q 	c #273A40",
"R 	c #313036",
"S 	c #121215",
"T 	c #CCCCCC",
"U 	c #C4C5C5",
"V 	c #BDAAAA",
"W 	c #C2ADAD",
"X 	c #C2ACAC",
"Y 	c #C1ACAC",
"Z 	c #A9ACAD",
"` 	c #AAAAAB",
" .	c #A6A6A7",
"..	c #C5C7C7",
"+.	c #C4C6C6",
"@.	c #C7C7C6",
"#.	c #C7C7C7",
"$.	c #BBBBBB",
"%.	c #969696",
"&.	c #828282",
". + + + + + + + + + + + + + + @ ",
"# $ $ $ $ $ $ $ $ $ $ $ $ $ $ % ",
"+ & & & * * * * * = - * & & & ; ",
"+ & & > , ' ) ' ! ~ { ] > & & ; ",
"+ & & ^ / ( _ : < [ } | 1 & & ; ",
"+ & & 2 3 4 5 6 7 8 9 0 a & & ; ",
"+ & & b c d e f g h i j k & & ; ",
"+ & & l m n n n o p q j 1 & & ; ",
"+ & & r s t u v w x y z A & & ; ",
"+ & & B C D E F G H I J k & & ; ",
"+ & & K L M N O P Q R S T & & ; ",
"+ & & U V W X X Y Z `  .& & & ; ",
"+ & & $ ..+.+.+.+.@.#.#.$ & & ; ",
"+ > > > > > > > > > > > > > > ; ",
"$.%.%.%.%.%.%.%.%.%.%.%.%.%.%.&."};
