/* XPM */
static char * zoomCam_xpm[] = {
"16 16 81 1",
" 	c None",
".	c #6DA4BD",
"+	c #7CBBD7",
"@	c #000000",
"#	c #10181C",
"$	c #2D434E",
"%	c #2C424C",
"&	c #273B43",
"*	c #436574",
"=	c #75B1CB",
"-	c #2B414B",
";	c #71AAC4",
">	c #679BB3",
",	c #35515D",
"'	c #2E4650",
")	c #77B3CE",
"!	c #6DABD7",
"~	c #18252A",
"{	c #6EABD7",
"]	c #2D444E",
"^	c #466A79",
"/	c #70B0E5",
"(	c #000101",
"_	c #68A3CE",
":	c #416271",
"<	c #263942",
"[	c #7AB7D3",
"}	c #11191D",
"|	c #4B7182",
"1	c #273B44",
"2	c #334D59",
"3	c #5A889C",
"4	c #72ACC6",
"5	c #203037",
"6	c #1A282E",
"7	c #558094",
"8	c #3B5966",
"9	c #395663",
"0	c #4C7284",
"a	c #6193A9",
"b	c #72ACC5",
"c	c #19262C",
"d	c #7BB9D4",
"e	c #121C20",
"f	c #66A0CB",
"g	c #2B414A",
"h	c #4E7688",
"i	c #070B0D",
"j	c #121A1E",
"k	c #3D5C6A",
"l	c #7AB8D4",
"m	c #5C8BA0",
"n	c #6CA3BB",
"o	c #3B5967",
"p	c #344E59",
"q	c #679BB2",
"r	c #79B7D2",
"s	c #75B0CA",
"t	c #40606E",
"u	c #090D0F",
"v	c #2C434D",
"w	c #6DA5BE",
"x	c #3F5F6E",
"y	c #23343C",
"z	c #24363E",
"A	c #263A43",
"B	c #2A4049",
"C	c #4D7586",
"D	c #6599AF",
"E	c #476B7B",
"F	c #74AFCA",
"G	c #699EB6",
"H	c #6BA1B9",
"I	c #588498",
"J	c #1F2F36",
"K	c #283D46",
"L	c #699EB5",
"M	c #385562",
"N	c #253840",
"O	c #7BBAD5",
"P	c #6394AA",
"       .+       ",
"   @#$%&*=+     ",
"  @-;++>,')!    ",
" @~{+  +=]^!/   ",
" (_+ @:   <[{   ",
" }{| 12:345+{   ",
" 6!78$90abcd{   ",
" ef+ gh   id{   ",
" jkl+ m+n@o++   ",
"  1pqrstuvw+    ",
"   xyzABCDgE++  ",
"    FGHrI6JKL{  ",
"         c<AM+! ",
"          NA0+O ",
"           P 4  ",
"                "};
